<?xml version="1.0" standalone="no"?>
<!DOCTYPE svg PUBLIC "-//W3C//DTD SVG 20010904//EN"
 "http://www.w3.org/TR/2001/REC-SVG-20010904/DTD/svg10.dtd">
<svg version="1.0" xmlns="http://www.w3.org/2000/svg"
 width="400.000000pt" height="400.000000pt" viewBox="0 0 400.000000 400.000000"
 preserveAspectRatio="xMidYMid meet">
<metadata>
Created by potrace 1.11, written by Peter Selinger 2001-2013
</metadata>
<g transform="translate(0.000000,400.000000) scale(0.100000,-0.100000)"
fill="#000000" stroke="none">
<path d="M345 3989 c-2 -3 -25 -6 -52 -8 -47 -2 -223 -49 -233 -61 -3 -4 -17
-10 -32 -14 -21 -5 -28 -12 -28 -31 0 -30 25 -33 40 -5 11 20 40 28 40 11 0
-6 -10 -17 -22 -26 -23 -16 -23 -16 10 -11 19 2 31 2 27 -2 -4 -4 -12 -7 -18
-7 -7 0 -16 -27 -20 -63 -6 -39 -14 -65 -23 -69 -17 -6 -18 -30 -2 -35 9 -3 9
-6 0 -12 -7 -4 -12 -2 -12 3 0 6 -4 11 -10 11 -15 0 -12 -27 3 -33 26 -10 97
11 132 38 22 16 44 25 56 22 12 -3 24 2 33 15 15 21 53 21 49 0 -2 -7 3 -12
11 -12 8 0 22 -3 31 -6 11 -5 8 2 -9 20 -21 23 -31 27 -68 24 -35 -2 -43 0
-46 15 -3 16 -1 17 17 7 14 -7 21 -7 21 0 0 14 30 13 60 -3 20 -11 31 -11 55
-1 l30 12 -28 11 c-16 6 -40 11 -55 11 -15 0 -47 9 -71 20 -24 11 -49 20 -57
20 -8 0 -14 6 -14 14 0 12 10 12 58 -4 99 -32 166 -37 333 -24 99 7 134 34
144 109 l6 50 -21 -21 c-12 -11 -23 -29 -24 -40 -2 -11 -11 -19 -22 -19 -17 0
-19 7 -17 53 l3 54 -136 -4 c-75 -1 -137 -6 -139 -9z m22 -82 c-4 -12 -2 -29
3 -36 7 -12 11 -12 24 -2 9 8 16 22 16 32 0 11 5 19 10 19 16 0 12 -42 -7 -62
-9 -11 -30 -18 -51 -18 -28 0 -33 3 -27 18 3 9 9 29 12 45 3 15 10 27 15 27 6
0 8 -10 5 -23z m-237 -9 c0 -12 5 -36 12 -55 13 -36 7 -49 -19 -39 -12 5 -14
9 -5 15 9 5 9 16 2 41 -13 44 -13 60 0 60 6 0 10 -10 10 -22z m-20 -22 c0 -3
-4 -8 -10 -11 -5 -3 -10 -1 -10 4 0 6 5 11 10 11 6 0 10 -2 10 -4z m230 -110
c0 -3 -4 -8 -10 -11 -5 -3 -10 -1 -10 4 0 6 5 11 10 11 6 0 10 -2 10 -4z"/>
<path d="M913 3981 c-33 -19 -83 -55 -111 -81 -14 -13 -15 -12 -9 18 6 27 4
32 -13 32 -11 0 -20 -5 -20 -12 0 -21 -73 -117 -94 -125 -18 -6 -17 -8 14 -16
19 -6 62 -11 95 -11 40 -1 64 -6 73 -16 12 -13 13 -13 8 3 -3 10 0 17 7 17 7
0 18 9 25 20 7 11 21 20 31 20 29 0 54 29 40 46 -8 10 -7 12 10 9 11 -2 23 0
26 6 4 5 13 9 21 9 11 0 13 -6 9 -21 -5 -14 -3 -19 3 -15 6 3 14 1 18 -5 5 -9
-4 -10 -34 -5 -26 4 -42 2 -42 -4 0 -5 5 -10 11 -10 5 0 7 -5 4 -10 -4 -6 -15
-8 -26 -5 -30 10 -23 -15 13 -47 42 -37 58 -36 59 5 0 17 3 26 6 20 8 -20 23
-15 23 8 0 16 4 19 20 14 12 -4 20 -2 20 5 0 7 7 9 18 5 11 -4 13 -3 7 3 -5 6
-18 12 -28 14 -17 3 -16 4 2 20 19 16 22 16 37 1 9 -9 34 -17 58 -18 22 -1 54
-7 70 -14 23 -9 31 -9 37 1 5 7 16 13 26 13 10 0 19 7 19 15 1 8 2 20 3 27 0
7 7 10 15 7 7 -3 16 2 20 11 3 10 -1 18 -12 21 -9 3 -25 10 -35 15 -10 6 -27
7 -37 4 -24 -8 -60 11 -60 30 0 24 -283 20 -327 -4z m27 -26 c0 -12 -24 -55
-32 -55 -12 0 -10 34 4 48 12 12 28 16 28 7z"/>
<path d="M1465 3990 c3 -5 13 -10 21 -10 8 0 14 5 14 10 0 6 -9 10 -21 10 -11
0 -17 -4 -14 -10z"/>
<path d="M1598 3988 c12 -6 22 -14 22 -18 0 -13 -47 -32 -71 -29 -13 2 -35 -4
-49 -14 -13 -9 -30 -17 -37 -17 -7 0 -13 -7 -13 -15 0 -11 -5 -12 -26 -5 -34
13 -39 13 -26 -3 6 -7 27 -19 47 -27 42 -16 30 -30 -27 -30 -48 0 -49 -16 -2
-22 24 -3 38 0 41 9 3 7 11 13 17 13 7 0 24 17 37 38 19 29 31 38 58 40 20 2
37 -2 42 -10 7 -10 11 -10 21 0 18 18 78 16 78 -3 0 -8 7 -15 15 -15 17 0 20
-26 4 -36 -7 -4 -2 -15 14 -30 21 -19 32 -22 59 -17 18 3 39 14 48 24 8 9 27
24 42 33 l26 17 0 -36 c0 -31 -3 -35 -19 -30 -33 11 -22 -25 11 -36 28 -10 44
-32 19 -27 -6 2 -14 -3 -17 -11 -3 -8 0 -11 7 -7 6 4 11 2 11 -3 0 -7 7 -7 20
1 11 7 18 18 16 25 -3 7 1 10 8 7 9 -4 12 7 10 42 -2 41 -1 45 16 41 13 -3 21
1 26 15 7 23 36 20 40 -4 1 -9 -7 -26 -17 -37 -10 -11 -19 -25 -19 -31 0 -6
-7 -13 -15 -16 -8 -4 -12 -11 -9 -16 4 -6 10 -5 15 3 7 12 9 12 9 0 0 -7 -16
-28 -35 -47 -19 -18 -35 -42 -35 -53 0 -12 -4 -21 -9 -21 -5 0 -12 -12 -15
-27 -8 -34 -54 -63 -89 -56 -18 4 -28 -1 -36 -16 -17 -32 -31 -25 -31 14 0 19
-5 35 -10 35 -6 0 -9 3 -9 8 3 20 -2 33 -11 27 -6 -4 -8 -15 -5 -25 9 -29 -9
-31 -47 -5 -19 13 -50 25 -69 27 -29 2 -34 7 -37 31 -2 15 -8 27 -13 27 -9 0
-13 -14 -10 -37 2 -18 -15 -16 -45 4 -22 14 -29 14 -46 4 -17 -11 -22 -9 -35
9 -11 16 -22 20 -39 16 -20 -5 -34 -1 -73 21 -2 2 2 9 9 18 7 8 10 21 7 29 -5
13 -12 12 -44 -4 -50 -25 -75 -33 -93 -32 -10 1 -11 0 -2 -4 21 -10 2 -24 -24
-18 -14 4 -24 2 -24 -5 0 -6 7 -11 15 -11 8 0 15 -7 15 -15 0 -18 -17 -20 -23
-2 -2 6 -8 0 -12 -15 -4 -16 -13 -28 -21 -28 -8 0 -11 -6 -8 -15 5 -12 -2 -15
-27 -15 -26 0 -30 3 -19 10 12 8 9 10 -12 10 -40 0 -35 -26 10 -49 19 -10 30
-10 53 -1 16 7 26 16 23 21 -3 5 0 9 5 9 17 0 51 -38 51 -57 0 -11 -3 -14 -8
-7 -9 13 -54 26 -46 13 5 -8 -25 -13 -64 -12 -8 1 -22 -6 -32 -15 -36 -32 -45
-37 -68 -34 -18 3 -23 -1 -20 -14 5 -29 33 -40 53 -21 13 14 21 15 38 5 12 -6
25 -15 28 -20 3 -5 12 -10 20 -11 8 -2 20 -6 27 -11 7 -4 19 -2 27 4 18 15 20
-1 5 -31 -15 -28 -39 -23 -89 16 -24 19 -48 35 -52 35 -16 0 -10 -38 7 -44 20
-8 9 -26 -17 -26 -23 0 -24 -6 -4 -26 8 -9 15 -26 15 -38 0 -19 6 -23 29 -24
25 0 31 4 36 29 7 33 9 33 36 19 23 -13 25 -33 5 -49 -13 -11 -11 -16 7 -34
l22 -22 -22 -3 c-26 -4 -66 15 -58 28 8 14 -16 23 -28 11 -6 -6 -24 -11 -39
-11 -25 0 -28 3 -22 25 5 21 3 25 -16 25 -13 0 -19 4 -14 11 4 8 -3 9 -26 4
-18 -4 -38 -8 -44 -9 -33 -6 -56 -19 -56 -32 0 -18 -76 -20 -82 -2 -3 7 -11 9
-24 3 -10 -4 -28 -10 -39 -12 -11 -2 -26 -11 -33 -21 -7 -9 -19 -16 -26 -14
-8 1 -16 -5 -20 -13 -3 -9 -11 -13 -17 -9 -7 4 -28 9 -47 11 -32 3 -34 2 -30
-22 3 -14 2 -25 -2 -25 -7 0 -18 -41 -22 -80 -1 -8 -8 -20 -15 -25 -24 -18 -5
-45 33 -45 19 0 34 -4 34 -10 0 -5 -12 -10 -26 -10 -15 0 -33 -8 -40 -17 -8
-12 -13 -13 -14 -5 0 7 -10 16 -22 21 -35 13 -43 12 -40 -7 1 -12 -11 -22 -38
-34 -38 -16 -54 -38 -27 -38 6 0 4 -5 -6 -11 -22 -13 -22 -48 1 -51 9 -1 24
-2 32 -3 25 -2 40 -15 40 -36 0 -25 -15 -24 -51 2 -16 11 -35 19 -42 16 -6 -2
-25 9 -42 24 -21 20 -32 25 -37 16 -12 -19 -9 -34 3 -17 9 12 10 10 6 -8 -4
-19 -2 -22 13 -17 10 3 21 2 24 -3 3 -5 -11 -12 -32 -16 -21 -3 -38 -1 -40 4
-5 13 -23 13 -55 -2 -37 -18 -34 -29 4 -18 24 7 35 5 51 -9 24 -23 18 -27 -55
-36 -38 -5 -57 -12 -57 -21 0 -8 -6 -14 -12 -14 -7 0 -4 -6 7 -12 11 -6 25
-19 32 -27 11 -14 12 -14 13 0 0 12 11 18 35 21 29 3 34 1 30 -12 -7 -21 39
-46 89 -49 21 -1 48 -7 60 -13 20 -12 20 -12 -9 -19 -16 -4 -43 -7 -59 -8 -28
-1 -29 0 -10 14 21 16 8 20 -16 5 -9 -5 -19 -5 -27 1 -8 7 -18 7 -30 -1 -15
-10 -15 -11 -1 -6 9 2 21 -1 28 -8 8 -11 1 -15 -36 -21 -26 -3 -53 -9 -60 -12
-21 -8 -17 -23 7 -23 12 0 19 -5 16 -12 -2 -7 -20 -13 -41 -13 -22 0 -35 -4
-32 -11 2 -6 -2 -11 -9 -11 -7 0 -11 6 -8 13 2 6 0 15 -6 19 -6 3 -11 -1 -11
-9 0 -10 -8 -15 -22 -13 -22 2 -23 0 -25 -106 -1 -61 2 -107 8 -107 5 0 9 7 9
15 0 21 13 19 28 -5 17 -27 57 -25 89 4 24 22 45 74 26 63 -19 -11 -53 13 -53
38 0 16 -6 25 -15 25 -8 0 -15 4 -15 9 0 5 -3 16 -6 25 -4 10 -1 16 10 16 10
0 13 -6 10 -15 -4 -8 -1 -15 5 -15 6 0 11 8 11 19 0 10 9 21 20 24 11 3 18 2
15 -3 -3 -4 4 -10 15 -13 20 -5 21 1 4 65 -4 13 2 16 28 16 18 -1 49 2 68 6
l35 6 -39 -15 c-37 -14 -83 -52 -74 -60 7 -7 48 7 48 16 0 11 71 41 78 34 3
-3 0 -5 -7 -5 -7 0 -9 -4 -6 -10 3 -5 1 -10 -6 -10 -6 0 -22 -11 -34 -24 -12
-13 -28 -26 -36 -29 -12 -5 -12 -8 2 -19 8 -7 18 -21 22 -31 4 -11 12 -15 19
-11 9 5 9 3 -1 -9 -7 -9 -24 -17 -37 -17 -30 0 -33 -6 -25 -60 4 -32 11 -46
24 -48 9 -2 17 1 17 7 0 6 7 11 15 11 8 0 15 -5 15 -11 0 -6 9 -8 23 -4 18 6
20 5 10 -6 -7 -7 -13 -21 -13 -31 0 -10 -13 -24 -29 -33 -16 -8 -31 -20 -34
-27 -3 -10 -9 -9 -24 4 -27 24 -53 23 -53 -2 0 -11 -2 -20 -5 -20 -3 0 -36 26
-73 57 l-67 57 -3 -59 c-2 -33 -2 -155 0 -271 3 -181 5 -213 20 -227 10 -10
19 -13 23 -7 4 6 15 2 27 -10 12 -11 27 -20 32 -20 18 -1 -37 -40 -56 -40 -37
0 -48 -12 -47 -49 1 -20 3 -28 6 -19 4 15 8 16 26 6 20 -10 21 -10 7 7 -14 16
-13 17 8 11 14 -5 29 -3 37 4 16 13 39 4 29 -12 -4 -5 -27 -23 -52 -39 -36
-23 -41 -29 -24 -29 12 0 22 -4 22 -10 0 -5 11 -10 25 -10 16 0 25 6 25 15 0
8 -7 15 -15 15 -31 0 -14 18 23 23 95 15 87 20 90 -58 2 -38 8 -75 13 -82 7
-7 6 -12 -3 -15 -9 -3 -11 -32 -9 -104 2 -98 2 -99 -28 -133 -17 -19 -31 -35
-31 -35 -2 -7 -34 -189 -42 -238 l-11 -66 -32 5 c-18 3 -41 0 -51 -6 -16 -8
-10 -10 29 -11 43 0 47 -2 47 -25 0 -23 -4 -25 -45 -25 -43 0 -45 -1 -45 -29
0 -16 6 -32 13 -34 9 -4 9 -8 -2 -15 -10 -8 -11 -10 0 -14 15 -5 14 -89 -2
-99 -8 -4 -7 -8 2 -12 11 -4 12 -7 1 -18 -9 -10 -12 -77 -12 -266 l0 -253
2000 0 2000 0 0 368 0 367 -233 1 -232 1 -6 34 -6 34 -2 -35 -1 -36 -317 4
c-175 2 -319 8 -321 13 -2 5 -8 9 -13 9 -6 0 -7 -4 -4 -10 4 -7 -67 -10 -205
-10 -138 0 -209 3 -205 10 4 6 -12 10 -40 10 -25 0 -44 -4 -41 -9 11 -17 -2
-17 -1161 -13 l-382 2 1 74 c0 41 -3 79 -6 85 -9 13 16 72 38 90 14 12 22 12
37 3 16 -10 19 -9 19 3 0 21 -29 31 -51 17 -30 -19 -44 -14 -25 7 12 13 26 18
47 14 22 -3 29 0 29 13 0 14 -7 16 -45 12 -39 -5 -44 -4 -33 9 7 9 24 13 45
11 27 -3 33 0 33 14 0 13 -8 18 -27 19 -20 0 -13 4 23 13 28 7 68 23 90 37 39
25 98 48 191 76 52 16 63 26 43 38 -18 11 8 34 30 28 11 -3 20 -13 20 -23 0
-26 38 -15 70 20 14 15 51 49 83 77 47 42 66 52 108 57 38 5 49 10 45 21 -7
18 55 38 66 21 12 -18 9 -23 -14 -22 -16 1 -22 -4 -19 -14 2 -8 3 -25 3 -37
-2 -25 8 -29 26 -11 9 9 12 8 12 -5 0 -9 9 -21 19 -27 14 -7 18 -17 15 -35 -7
-38 14 -30 31 12 15 36 15 39 -4 55 -32 25 -27 57 8 64 16 4 39 15 50 25 22
20 51 25 51 9 0 -5 -9 -10 -20 -10 -11 0 -20 -4 -20 -10 0 -14 37 -12 83 4 20
8 40 10 43 5 3 -5 19 -8 37 -6 19 1 32 -3 33 -10 1 -7 3 -16 4 -20 1 -5 2 -11
1 -16 0 -4 6 -7 14 -7 8 0 15 6 15 14 0 25 30 39 80 38 54 -1 142 -39 121 -52
-8 -4 -2 -8 16 -8 47 -1 97 -8 121 -16 23 -8 28 0 13 23 -5 8 -16 11 -25 8
-10 -4 -19 -1 -22 8 -4 8 -12 15 -20 15 -8 0 -14 4 -14 10 0 5 -7 7 -15 4 -16
-6 -19 4 -9 30 3 9 15 16 25 16 10 0 19 6 19 13 0 20 43 35 69 23 12 -5 20
-15 17 -21 -5 -14 26 -15 36 -1 3 6 32 -12 63 -38 52 -45 55 -46 49 -22 -5 20
-2 26 10 26 9 0 16 -5 16 -11 0 -6 9 -8 21 -4 15 5 19 4 15 -4 -5 -7 2 -11 16
-11 20 -1 21 -2 6 -11 -10 -5 -18 -19 -18 -30 0 -11 4 -17 10 -14 5 3 17 -3
27 -15 20 -24 35 -26 27 -5 -6 13 11 20 38 16 15 -2 35 45 33 74 -4 47 -4 47
-19 42 -10 -4 -16 2 -18 21 -2 19 -12 31 -35 41 -18 8 -33 18 -33 23 0 10 8
10 48 -1 17 -5 32 -6 32 -2 0 6 121 8 153 2 19 -3 4 -19 -23 -24 -29 -6 -40
-29 -20 -42 6 -3 10 1 10 10 0 13 7 15 34 10 19 -4 43 -2 54 4 10 6 22 7 26 3
4 -3 33 -7 64 -7 48 0 58 3 58 18 0 10 -8 17 -18 17 -10 0 -18 7 -18 15 0 8
-7 15 -15 15 -8 0 -15 5 -15 10 0 6 7 10 15 10 23 0 18 18 -12 46 -22 21 -33
24 -76 19 -43 -4 -50 -2 -54 15 -3 11 -14 20 -24 20 -31 0 -69 -19 -69 -34 0
-11 -9 -15 -30 -13 -23 2 -28 6 -24 19 2 9 0 19 -6 23 -5 3 -10 13 -10 22 0
14 3 14 20 -2 16 -14 20 -15 20 -4 0 18 36 22 63 7 17 -9 19 -8 14 6 -10 25
22 20 49 -9 22 -24 62 -36 49 -15 -9 14 7 12 29 -5 16 -12 22 -12 44 3 25 16
26 16 19 -1 -4 -11 -2 -17 8 -17 22 0 27 17 8 35 -16 16 -15 17 18 10 19 -4
38 -11 44 -16 5 -5 12 -9 17 -9 7 0 58 47 58 54 0 2 -23 -1 -52 -6 -43 -8 -54
-7 -63 6 -9 12 -27 15 -81 12 -38 -2 -82 -7 -99 -11 -19 -4 -37 -1 -48 7 -18
13 -18 15 -1 51 21 44 48 54 98 37 35 -11 61 -6 52 9 -3 4 16 6 42 4 26 -3 61
1 77 8 17 6 42 11 58 10 24 -2 27 1 27 28 0 25 -6 34 -26 41 -14 6 -34 9 -43
8 -11 -2 -15 3 -13 19 2 17 -1 21 -12 17 -18 -7 -23 21 -6 31 19 12 0 26 -20
15 -13 -7 -21 -7 -25 0 -3 5 0 10 7 11 7 0 2 5 -11 10 -29 11 -40 -1 -33 -37
6 -32 -16 -31 -24 1 -5 22 -11 25 -35 21 -46 -7 -36 19 19 49 26 14 52 36 57
48 7 15 22 24 50 28 22 3 30 7 18 8 -13 0 -23 3 -23 6 0 3 18 28 40 56 40 51
48 69 30 69 -5 0 -10 -7 -10 -15 0 -10 -10 -15 -27 -15 -20 0 -42 -16 -85 -59
-59 -61 -124 -94 -139 -69 -8 13 -57 3 -79 -17 -8 -7 -32 -16 -54 -19 -34 -7
-38 -5 -32 10 4 10 4 15 0 12 -4 -4 -15 -3 -24 2 -13 7 -29 5 -54 -5 -19 -8
-65 -15 -102 -15 l-67 0 6 -34 5 -34 -61 -12 c-34 -7 -81 -15 -104 -17 -42 -5
-42 -5 -22 -22 25 -20 16 -51 -16 -51 -15 0 -27 10 -38 32 -12 26 -17 29 -22
16 -6 -14 -10 -14 -34 -2 -15 7 -58 18 -95 23 -68 10 -99 21 -58 21 14 0 22 6
22 17 0 13 3 14 12 5 16 -16 80 -15 97 1 11 10 13 8 8 -10 -7 -31 7 -29 21 2
16 34 15 34 -8 28 -14 -4 -20 0 -20 11 0 10 -9 16 -24 16 -14 0 -28 5 -31 10
-3 6 -2 10 4 10 6 0 8 12 5 30 -4 19 -2 30 5 30 6 0 11 8 11 19 0 21 -26 31
-83 31 -25 0 -43 7 -54 20 -22 25 -33 25 -33 1 0 -10 9 -21 19 -24 14 -3 19
-13 18 -33 -1 -16 -6 -32 -11 -36 -10 -6 -65 18 -76 34 -3 4 -13 -1 -22 -12
-16 -18 -15 -19 11 -18 38 1 50 -8 43 -34 -4 -18 -2 -20 16 -16 12 4 22 2 22
-3 0 -5 -4 -9 -10 -9 -5 0 -10 -7 -10 -16 0 -11 6 -14 21 -9 15 5 20 3 17 -6
-2 -8 -19 -18 -36 -24 -18 -5 -32 -12 -32 -16 0 -4 -9 -5 -20 -2 -11 3 -20 13
-20 22 0 25 -10 32 -31 20 -16 -8 -19 -6 -19 10 0 14 5 18 19 14 25 -6 35 11
16 27 -8 7 -15 9 -15 4 0 -4 -7 1 -15 12 -14 19 -14 19 -15 -1 0 -17 -2 -17
-10 -5 -21 32 0 130 28 130 14 0 12 4 -7 19 l-24 18 29 6 c16 3 35 1 42 -5 8
-7 12 -7 12 1 0 6 -4 11 -9 11 -4 0 -6 12 -3 27 4 22 2 25 -12 20 -10 -4 -20
-7 -22 -7 -3 0 -3 -4 1 -9 3 -6 -6 -6 -25 -1 -19 5 -28 5 -25 -1 6 -9 -21 -43
-37 -45 -4 -1 -13 -2 -19 -3 -5 0 -8 -5 -4 -10 3 -6 -4 -15 -15 -21 -31 -17
-26 14 6 35 14 9 30 30 36 46 8 23 26 37 82 64 54 26 65 35 46 36 -44 2 -64
-2 -83 -19 -12 -11 -21 -13 -25 -5 -4 6 -32 -20 -67 -63 -33 -40 -61 -71 -63
-70 -1 2 -4 18 -7 35 -2 18 -9 39 -15 46 -7 8 -9 19 -5 25 3 5 1 10 -4 10 -6
0 -11 8 -11 17 0 29 -18 1 -31 -49 -12 -43 -11 -49 5 -61 17 -12 17 -14 2 -20
-9 -4 -16 -16 -16 -27 0 -25 -26 -26 -59 -4 -24 17 -24 31 0 92 13 31 12 35
-6 50 -22 19 -30 73 -12 84 8 5 5 14 -11 28 -23 21 -30 50 -12 50 6 0 10 7 10
15 0 14 22 20 62 17 10 -1 17 2 16 6 -1 4 1 17 6 30 6 18 15 22 46 22 26 0 40
5 44 16 5 13 9 14 21 4 18 -15 20 -34 3 -24 -8 5 -9 2 -5 -9 3 -10 2 -17 -3
-17 -5 0 -7 -7 -4 -15 8 -19 19 -19 38 1 15 14 16 14 16 -3 0 -28 35 -45 78
-37 55 10 65 21 45 50 -14 22 -14 24 1 18 9 -4 16 -1 16 6 0 6 6 10 13 7 6 -2
26 6 42 18 17 12 45 22 63 23 17 0 42 4 54 7 17 6 20 4 15 -9 -5 -12 -2 -17
11 -15 35 3 42 -2 67 -51 21 -42 30 -50 53 -50 15 0 38 7 50 16 12 8 27 12 32
9 6 -3 10 2 10 13 0 10 -11 25 -25 32 -14 7 -25 21 -25 30 0 10 -7 23 -15 30
-25 21 28 47 87 43 26 -1 58 2 70 7 13 5 17 9 11 9 -7 1 -13 8 -13 16 0 8 -5
15 -11 15 -5 0 -7 -4 -4 -10 4 -6 -14 -10 -47 -9 -29 1 -45 3 -35 6 9 2 17 8
17 12 0 5 23 11 51 15 33 5 49 11 46 19 -4 13 -19 13 -80 2 -32 -7 -37 -5 -31
9 3 9 13 16 22 16 8 0 13 2 10 5 -8 9 -152 -17 -163 -29 -5 -6 -12 -22 -13
-36 -2 -14 -5 -26 -6 -27 -1 -1 -15 11 -32 26 -22 21 -35 26 -49 20 -11 -4
-14 -8 -7 -8 6 -1 12 -5 12 -11 0 -6 -18 -7 -44 -4 -27 4 -46 2 -50 -5 -4 -6
-3 -11 2 -11 17 0 9 -30 -10 -36 -10 -3 -21 -17 -24 -30 l-6 -25 -25 23 c-19
18 -26 20 -32 9 -6 -9 -11 -10 -15 -3 -4 7 -18 6 -41 -4 -32 -13 -35 -13 -35
2 0 9 23 39 51 66 36 35 48 53 39 58 -9 5 -9 9 -1 14 6 4 16 4 23 0 6 -4 8 -3
4 4 -7 12 44 68 59 64 5 -2 7 0 3 4 -4 4 -4 12 1 18 5 6 19 29 31 50 19 36 20
40 5 48 -13 8 -14 12 -3 26 11 14 10 15 -6 9 -17 -7 -18 -4 -13 27 3 21 1 36
-5 38 -18 6 1 28 25 28 31 1 57 23 57 51 0 18 3 20 12 11 17 -17 19 -45 5 -54
-8 -5 -6 -8 6 -8 10 0 17 8 17 20 0 23 3 23 47 11 19 -5 35 -6 38 -1 3 5 19 4
36 -2 42 -14 49 -1 9 16 -32 13 -33 14 -12 25 29 15 30 45 2 36 -14 -5 -22 -1
-26 12 -3 10 -12 30 -20 45 -17 31 -18 42 -4 33 6 -3 13 1 16 9 3 9 14 16 23
17 30 1 -21 18 -59 19 -30 0 -32 2 -17 11 10 6 38 9 62 7 24 -1 41 0 39 3 -9
15 81 39 156 41 72 2 78 4 56 15 -18 9 -32 10 -51 3 -34 -13 -145 -13 -145 0
0 16 -38 11 -48 -6 -6 -10 -25 -17 -53 -19 -24 -1 -29 0 -11 2 34 4 39 12 21
30 -8 8 -4 16 13 28 16 12 18 16 5 11 -10 -3 -28 -6 -39 -6 -18 0 -19 -2 -7
-16 11 -13 11 -15 -2 -14 -25 4 -59 -12 -52 -24 3 -6 2 -7 -3 -3 -5 5 -9 14
-9 20 0 7 -16 14 -35 17 -32 5 -35 8 -33 35 1 16 7 31 12 33 23 8 63 76 67
115 3 29 2 38 -5 27 -6 -8 -14 -11 -18 -6 -4 4 -1 13 7 19 28 22 52 69 47 93
-3 19 -1 23 12 20 9 -3 23 5 34 19 17 23 16 25 -8 49 -14 14 -25 30 -25 36 0
15 -163 13 -178 -2 -9 -9 -12 -9 -12 0 0 9 -45 12 -172 11 -132 0 -168 -3
-150 -11z m376 -29 c-3 -5 -10 -7 -15 -3 -5 3 -7 10 -3 15 3 5 10 7 15 3 5 -3
7 -10 3 -15z m-150 -55 c17 -7 22 -54 6 -54 -16 0 -60 42 -54 52 6 9 26 10 48
2z m-557 -233 c10 -15 8 -23 -9 -40 -22 -25 -18 -51 9 -51 13 0 14 -3 5 -12
-8 -8 -16 -5 -31 13 -24 28 -26 45 -8 53 6 3 1 3 -13 0 l-25 -5 23 20 c12 10
22 24 22 30 0 17 14 13 27 -8z m353 -142 c0 -6 -4 -7 -10 -4 -5 3 -10 11 -10
16 0 6 5 7 10 4 6 -3 10 -11 10 -16z m607 -5 c-3 -3 -12 -4 -19 -1 -8 3 -5 6
6 6 11 1 17 -2 13 -5z m-1037 -24 c0 -5 -4 -10 -10 -10 -5 0 -10 5 -10 10 0 6
5 10 10 10 6 0 10 -4 10 -10z m378 -36 c21 -32 21 -35 5 -32 -10 2 -17 9 -16
15 1 6 -10 8 -25 6 -20 -3 -23 -2 -13 5 8 6 11 17 8 26 -12 30 18 16 41 -20z
m43 6 c18 -16 30 -32 26 -36 -6 -6 -67 48 -67 60 0 11 9 6 41 -24z m-377 8
c-4 -7 -14 -23 -22 -36 l-15 -23 -12 23 c-10 19 -9 25 3 36 9 6 24 12 35 12
12 0 16 -4 11 -12z m206 -16 c0 -15 2 -15 10 -2 8 12 10 9 10 -14 0 -22 -4
-27 -16 -22 -12 4 -15 2 -10 -9 4 -12 2 -13 -14 -3 -31 20 -36 0 -6 -23 31
-25 22 -39 -26 -39 -35 0 -50 -42 -24 -68 15 -15 16 -15 16 0 0 21 27 48 48
48 10 0 13 -3 6 -8 -5 -4 -11 -29 -12 -56 -1 -27 1 -46 5 -43 3 4 12 -1 19
-11 12 -16 13 -15 14 6 0 12 6 22 14 22 8 0 17 7 20 16 3 8 10 13 15 9 5 -3
12 -1 15 4 4 5 1 13 -5 17 -16 9 9 24 43 24 17 0 33 -8 40 -20 7 -11 21 -20
31 -20 10 0 27 -5 39 -11 23 -13 39 -2 18 12 -11 7 -2 8 28 4 27 -5 42 -3 42
4 0 6 4 11 10 11 5 0 7 -7 3 -16 -4 -12 0 -14 21 -8 16 4 26 2 26 -5 0 -6 -8
-11 -17 -11 -16 -1 -16 -2 1 -12 14 -8 21 -8 24 0 3 11 91 -27 92 -41 0 -4 -3
-6 -7 -6 -39 6 -42 0 -23 -51 17 -46 17 -53 3 -81 -8 -17 -17 -28 -20 -25 -3
3 2 17 11 30 8 14 13 32 10 40 -6 17 -44 23 -44 7 0 -14 -112 28 -137 51 -13
12 -21 28 -19 35 3 7 -2 13 -10 13 -9 0 -18 9 -21 20 -3 11 -9 20 -14 20 -13
0 -11 -24 2 -37 8 -8 6 -18 -6 -37 -17 -26 -14 -77 8 -104 5 -7 7 -15 4 -18
-3 -4 -15 9 -26 27 -12 19 -21 28 -21 22 0 -7 -14 2 -31 20 -17 17 -35 31 -40
30 -5 -2 -9 4 -9 13 0 24 -25 11 -28 -15 -2 -13 5 -32 14 -43 18 -19 18 -20 1
-29 -16 -10 -15 -14 13 -49 26 -33 28 -39 15 -50 -10 -9 -15 -9 -15 -1 0 6
-10 11 -22 10 -15 0 -18 -2 -8 -6 8 -3 24 -13 34 -22 11 -9 16 -10 12 -3 -8
13 -5 15 17 6 21 -8 9 -42 -17 -46 -18 -3 -17 -4 7 -10 17 -3 33 0 41 8 11 10
19 9 47 -9 27 -16 30 -22 17 -25 -10 -2 -18 -8 -18 -13 0 -5 -3 -8 -7 -8 -20
3 -24 -2 -13 -16 7 -8 17 -12 24 -8 6 3 2 -4 -9 -16 -17 -19 -21 -21 -23 -7
-2 9 -8 14 -13 11 -5 -4 -9 -1 -9 4 0 6 -6 11 -14 11 -8 0 -21 6 -28 13 -24
22 -48 40 -48 34 0 -3 27 -28 60 -55 47 -40 57 -52 46 -61 -10 -8 -16 -7 -26
4 -11 13 -15 13 -39 -4 -26 -18 -111 -33 -111 -19 0 3 6 9 13 11 6 2 0 3 -15
1 -29 -4 -37 9 -16 22 9 6 6 10 -10 14 -13 3 -24 10 -24 15 -1 6 -8 16 -17 23
-9 8 -11 11 -5 8 7 -3 17 1 24 9 7 8 19 15 26 15 8 0 14 7 14 15 0 20 -6 19
-41 -6 -16 -11 -29 -17 -29 -13 0 3 -6 1 -14 -5 -8 -7 -12 -21 -8 -33 4 -16 2
-19 -8 -13 -10 6 -12 4 -7 -8 4 -11 2 -14 -9 -10 -17 6 -18 25 -2 41 18 18 3
15 -39 -8 -49 -26 -63 -25 -63 4 0 38 43 66 101 66 42 0 49 3 49 20 0 22 -10
26 -27 9 -7 -7 -14 8 -24 50 -15 71 -31 81 -25 16 2 -25 -1 -45 -6 -45 -5 0
-13 -10 -18 -22 -9 -21 -10 -21 -7 6 1 16 -4 31 -10 33 -7 3 -13 -2 -13 -11 0
-9 -8 -16 -21 -16 -11 0 -18 4 -15 8 3 5 -6 15 -19 22 -29 16 -79 85 -71 98 3
5 -3 17 -14 27 -16 15 -23 16 -33 6 -8 -8 -9 -14 -1 -19 6 -4 13 -14 17 -22 4
-8 14 -25 23 -37 16 -23 16 -23 -14 -23 -21 0 -35 -7 -42 -20 -8 -14 -20 -20
-40 -18 -22 2 -26 5 -19 15 6 6 8 21 4 33 -5 17 -10 19 -20 10 -8 -7 -18 -9
-23 -6 -6 3 -15 -1 -22 -9 -14 -17 -37 -9 -45 16 -8 25 -36 24 -63 -1 -22 -21
-22 -21 -22 -1 0 28 -12 32 -46 15 -68 -36 -67 -36 -113 22 -43 55 -47 79 -11
56 11 -7 27 -12 35 -12 8 0 15 -7 15 -15 0 -21 63 -30 99 -14 32 14 32 34 0
24 -13 -4 -19 -2 -19 9 0 9 9 16 20 16 11 0 23 6 26 13 6 16 5 16 107 21 61 4
82 9 92 22 10 15 16 16 27 6 15 -12 69 -17 171 -14 56 2 57 3 51 27 -3 14 -3
25 0 25 3 0 54 -31 112 -70 58 -38 115 -70 127 -70 16 0 6 11 -40 43 -34 23
-87 61 -117 84 -33 26 -61 40 -70 37 -10 -4 -22 6 -36 28 -26 43 -25 59 4 91
13 14 21 27 17 29 -4 2 1 18 10 37 l16 35 25 -40 c14 -21 34 -46 44 -54 17
-14 18 -14 6 2 -9 12 -10 17 -1 20 7 2 4 15 -10 38 -11 19 -21 38 -21 43 0 9
50 -2 67 -15 19 -15 66 0 59 18 -3 9 -1 12 4 9 6 -3 10 -14 10 -23z m248 -17
c8 -17 20 -25 37 -25 14 0 25 -4 25 -10 0 -5 -3 -10 -7 -10 -5 0 -18 -3 -29
-6 -15 -4 -23 0 -27 13 -4 10 -11 28 -17 41 -5 12 -6 22 -1 22 4 0 13 -11 19
-25z m-370 -50 c-3 -3 -9 2 -12 12 -6 14 -5 15 5 6 7 -7 10 -15 7 -18z m847
-55 c3 -5 -1 -10 -9 -10 -9 0 -16 5 -16 10 0 6 4 10 9 10 6 0 13 -4 16 -10z
m-979 -85 c14 -13 13 -15 -5 -15 -12 0 -21 6 -21 15 0 8 3 15 6 15 3 0 12 -7
20 -15z m745 -89 c14 8 11 -20 -6 -42 -13 -18 -14 -16 -13 21 1 22 3 34 6 27
2 -7 8 -10 13 -6z m-1366 -66 c4 -6 2 -17 -4 -24 -6 -7 -8 -16 -4 -19 3 -4 1
-7 -5 -7 -14 0 -31 31 -25 48 6 15 29 16 38 2z m1376 -82 c-17 -29 -43 -62
-58 -72 -14 -11 -23 -13 -18 -6 4 7 8 23 9 34 1 22 38 76 52 76 4 0 -5 -13
-21 -30 -29 -31 -30 -45 -1 -34 9 3 13 10 10 15 -3 5 -1 9 3 9 5 0 17 16 27
35 11 19 21 33 24 31 2 -3 -10 -29 -27 -58z m-187 -61 c-5 -19 -11 -64 -13
-89 -1 -5 -5 -8 -11 -8 -5 0 -7 6 -4 14 3 8 -2 29 -11 47 -17 31 -17 33 6 50
28 21 40 16 33 -14z m-1168 0 c3 -24 -13 -21 -19 4 -3 12 -1 19 5 17 6 -2 12
-12 14 -21z m382 -39 c14 -14 16 -38 3 -38 -5 0 -16 11 -25 25 -13 19 -13 25
-3 25 7 0 18 -5 25 -12z m814 -10 c-7 -7 -12 -8 -12 -2 0 14 12 26 19 19 2 -3
-1 -11 -7 -17z m-1315 -13 c0 -8 -4 -12 -9 -9 -4 3 -8 9 -8 15 0 5 4 9 8 9 5
0 9 -7 9 -15z m473 -42 c0 -20 -24 -11 -28 10 -2 12 1 15 12 11 9 -3 16 -13
16 -21z m37 -9 c-9 -9 -28 6 -21 18 4 6 10 6 17 -1 6 -6 8 -13 4 -17z m203 16
c-8 -5 -19 -10 -25 -10 -5 0 -3 5 5 10 8 5 20 10 25 10 6 0 3 -5 -5 -10z
m-426 -9 c3 -5 -5 -16 -19 -25 -23 -15 -24 -15 -18 1 4 10 11 21 17 25 14 10
14 10 20 -1z m-152 -59 c-9 -20 -18 -39 -19 -41 -5 -8 -43 32 -43 44 0 14 60
46 72 39 4 -3 0 -21 -10 -42z m553 38 c3 -5 2 -10 -4 -10 -5 0 -13 5 -16 10
-3 6 -2 10 4 10 5 0 13 -4 16 -10z m573 -15 c-3 -3 -9 2 -12 12 -6 14 -5 15 5
6 7 -7 10 -15 7 -18z m-1298 5 c0 -5 -4 -10 -10 -10 -5 0 -10 5 -10 10 0 6 5
10 10 10 6 0 10 -4 10 -10z m257 -16 c2 -13 1 -15 -4 -4 -3 8 -11 19 -17 23
-7 6 -6 7 4 4 8 -2 16 -12 17 -23z m333 15 c0 -8 4 -8 13 -1 15 13 41 -5 43
-30 2 -22 -3 -22 -21 -4 -8 7 -11 17 -7 22 4 5 0 3 -8 -3 -11 -9 -19 -8 -33 1
-21 16 -22 26 -2 26 8 0 15 -5 15 -11z m-361 -35 c-13 -16 -29 -10 -29 11 0 8
7 11 20 8 16 -4 18 -8 9 -19z m1551 22 c0 -2 -9 -6 -20 -9 -11 -3 -20 -1 -20
4 0 5 9 9 20 9 11 0 20 -2 20 -4z m-120 -16 c0 -5 -5 -10 -11 -10 -5 0 -7 5
-4 10 3 6 8 10 11 10 2 0 4 -4 4 -10z m35 0 c-3 -5 -11 -10 -16 -10 -6 0 -7 5
-4 10 3 6 11 10 16 10 6 0 7 -4 4 -10z m-1621 -44 c7 3 18 -6 26 -20 7 -14 18
-27 25 -30 27 -10 154 -119 149 -127 -5 -9 8 -13 32 -10 6 1 19 -9 30 -21 10
-12 13 -18 7 -14 -7 4 -13 2 -13 -3 0 -15 -28 -13 -75 4 l-40 16 39 -4 c39 -3
38 -2 -11 30 -16 10 -15 11 7 6 23 -4 22 -3 -7 17 -18 12 -38 18 -45 14 -8 -5
-6 -10 8 -16 38 -16 -103 4 -194 28 -52 13 -104 24 -115 25 -19 0 -19 2 5 10
19 8 41 6 79 -5 29 -9 56 -16 61 -16 12 0 10 30 -2 31 -20 3 -25 4 -37 12 -6
4 -14 3 -17 -2 -7 -11 -44 -3 -53 12 -4 7 5 8 27 4 27 -6 31 -4 26 9 -4 11 1
18 14 21 11 3 20 11 20 18 0 16 22 25 34 15 5 -5 14 -6 20 -4z m-134 -33 c0
-19 -17 -16 -39 6 -13 13 -16 21 -8 24 16 5 47 -15 47 -30z m1793 30 c-7 -2
-19 -2 -25 0 -7 3 -2 5 12 5 14 0 19 -2 13 -5z m-1273 -35 c0 -3 -9 -4 -20 -1
-23 6 -26 19 -7 26 11 4 27 -10 27 -25z m950 8 c0 -3 -4 -8 -10 -11 -5 -3 -10
-1 -10 4 0 6 5 11 10 11 6 0 10 -2 10 -4z m-1635 -16 c-3 -5 -15 -10 -26 -10
-10 0 -19 5 -19 10 0 6 12 10 26 10 14 0 23 -4 19 -10z m923 -35 c-3 -3 -9 2
-12 12 -6 14 -5 15 5 6 7 -7 10 -15 7 -18z m278 10 c-26 -19 -42 -19 -26 0 7
8 20 15 29 15 13 -1 13 -3 -3 -15z m445 -17 c11 -21 11 -22 -4 -10 -10 9 -27
11 -46 7 -17 -3 -32 -2 -36 4 -3 6 0 9 8 6 7 -3 24 -1 38 4 13 5 25 10 26 10
1 1 8 -9 14 -21z m-1591 3 c0 -5 -9 -7 -20 -4 -11 3 -20 7 -20 9 0 2 9 4 20 4
11 0 20 -4 20 -9z m37 -7 c-3 -3 -12 -4 -19 -1 -8 3 -5 6 6 6 11 1 17 -2 13
-5z m471 -14 c13 -22 52 -27 53 -7 0 12 20 -27 25 -50 4 -21 -39 -15 -68 10
-26 22 -47 67 -31 67 4 0 14 -9 21 -20z m239 -16 c-3 -3 -12 -4 -19 -1 -8 3
-5 6 6 6 11 1 17 -2 13 -5z m-77 -14 c0 -5 -2 -10 -4 -10 -3 0 -8 5 -11 10 -3
6 -1 10 4 10 6 0 11 -4 11 -10z m140 -10 c0 -5 -5 -10 -11 -10 -5 0 -7 5 -4
10 3 6 8 10 11 10 2 0 4 -4 4 -10z m-110 -40 c0 -5 -2 -10 -4 -10 -3 0 -8 5
-11 10 -3 6 -1 10 4 10 6 0 11 -4 11 -10z m-82 -17 c16 -16 16 -16 -1 -10 -10
4 -23 7 -28 7 -6 0 -7 5 -4 10 9 14 14 13 33 -7z m-480 -53 c2 -9 -2 -7 -10 4
-8 10 -21 17 -28 14 -9 -3 -8 -8 5 -21 9 -10 14 -21 11 -25 -4 -3 -11 0 -15 7
-5 7 -13 11 -19 7 -6 -3 -13 -2 -17 4 -3 5 -1 10 5 10 8 0 10 9 6 25 l-6 25
32 -18 c17 -10 34 -25 36 -32z m163 29 c-11 -12 -24 -18 -30 -14 -16 10 -13
23 7 28 37 10 43 7 23 -14z m140 -15 c9 -10 8 -15 -2 -19 -71 -25 -99 -33 -94
-25 3 5 -3 13 -12 19 -16 9 -15 10 5 11 15 0 26 7 29 18 3 14 12 17 33 14 16
-2 35 -10 41 -18z m117 -15 c-10 -5 -18 -14 -18 -19 0 -13 54 -40 80 -40 11 0
20 -4 20 -9 0 -5 15 -11 33 -13 29 -3 33 -1 29 15 -5 19 12 37 36 37 6 0 12
-7 12 -16 0 -10 6 -14 15 -10 10 3 15 -1 15 -13 0 -10 11 -30 25 -45 24 -26
42 -36 30 -16 -3 6 3 10 14 10 27 0 27 -26 0 -33 -18 -5 -19 -8 -8 -29 11 -20
14 -20 17 -5 2 9 9 17 16 17 21 0 37 22 25 36 -12 15 37 29 55 15 6 -5 18 -6
25 -2 17 11 82 -4 92 -20 4 -8 3 -19 -2 -25 -8 -9 -5 -11 9 -7 20 5 39 -22 23
-31 -5 -3 -7 -18 -5 -33 1 -15 -3 -34 -9 -42 -10 -11 -9 -13 3 -9 8 2 28 -8
44 -23 25 -23 33 -26 50 -17 19 10 18 13 -23 49 -36 32 -40 39 -23 39 12 0 24
-4 27 -10 3 -5 17 -10 31 -10 21 0 24 -4 19 -20 -5 -16 -2 -20 14 -20 23 0 24
-6 15 -62 -7 -38 -24 -53 -24 -20 -1 14 -4 13 -20 -7 -17 -20 -23 -21 -36 -10
-13 10 -17 10 -24 -1 -5 -8 -12 -11 -17 -7 -4 4 -2 17 5 28 10 16 9 24 -4 44
-20 30 -24 30 -69 5 -26 -15 -54 -20 -103 -20 -78 0 -93 7 -108 52 -7 23 -20
36 -41 43 -38 13 -63 33 -63 52 0 10 -6 13 -16 9 -9 -3 -20 -6 -25 -6 -5 0 -9
-4 -9 -10 0 -5 6 -10 14 -10 7 0 18 -6 24 -13 16 -19 -13 -57 -43 -57 -13 0
-30 -8 -37 -18 -7 -9 -23 -24 -34 -32 -12 -8 -37 -27 -55 -42 -22 -17 -52 -29
-84 -33 l-50 -6 28 23 c30 26 37 68 11 68 -9 0 -14 -6 -11 -13 7 -18 -39 -52
-72 -54 -14 0 -37 -4 -51 -8 l-25 -6 27 21 c24 19 26 23 14 36 -8 8 -21 14
-30 14 -8 0 -23 11 -33 24 -11 13 -30 26 -44 29 -19 3 -17 5 10 6 33 1 33 1
18 25 -15 22 -15 25 -1 30 9 3 28 6 42 6 29 1 62 21 62 38 0 6 5 12 11 14 8 3
8 10 -2 25 -7 12 -10 25 -7 29 5 4 83 -18 104 -30 1 -1 5 -11 8 -23 7 -20 5
-21 -24 -13 -40 11 -37 -9 4 -29 31 -15 42 -8 51 31 6 22 2 30 -22 44 -15 10
-32 24 -36 31 -4 7 -21 13 -36 13 -40 0 -91 11 -91 20 0 4 19 13 43 19 23 7
48 18 55 24 7 5 32 9 56 9 28 -1 48 3 56 13 7 8 18 15 24 15 6 0 3 -5 -6 -11z
m-478 -44 c0 -9 -6 -12 -16 -8 -13 5 -13 7 -2 14 17 11 18 11 18 -6z m925 -15
c3 -6 -1 -7 -9 -4 -18 7 -21 14 -7 14 6 0 13 -4 16 -10z m-938 -15 c7 -19 5
-20 -27 -30 -21 -7 -23 -6 -13 7 10 11 10 17 1 26 -9 9 -7 12 10 12 13 0 25
-7 29 -15z m1290 -7 c-3 -8 -6 -5 -6 6 -1 11 2 17 5 13 3 -3 4 -12 1 -19z
m-1227 -7 c0 -6 -4 -13 -10 -16 -5 -3 -10 1 -10 9 0 9 5 16 10 16 6 0 10 -4
10 -9z m717 3 c-3 -3 -12 -4 -19 -1 -8 3 -5 6 6 6 11 1 17 -2 13 -5z m-1035
-76 c-7 -7 -12 -8 -12 -2 0 14 12 26 19 19 2 -3 -1 -11 -7 -17z m1738 -18 c-8
-5 -19 -10 -25 -10 -5 0 -3 5 5 10 8 5 20 10 25 10 6 0 3 -5 -5 -10z m-1520
-20 c0 -5 -7 -10 -15 -10 -8 0 -15 5 -15 10 0 6 7 10 15 10 8 0 15 -4 15 -10z
m2658 -137 c2 -9 -6 -13 -25 -13 -19 0 -24 -3 -14 -9 14 -9 5 -18 -19 -17 -8
1 -16 11 -18 23 -2 16 3 23 20 26 34 7 51 4 56 -10z m-268 -3 c3 -1 -6 -6 -20
-12 -30 -14 -170 -17 -170 -5 0 5 11 7 25 5 13 -3 45 0 71 7 39 10 72 12 94 5z
m-1505 -30 c-3 -5 -11 -10 -16 -10 -6 0 -7 5 -4 10 3 6 11 10 16 10 6 0 7 -4
4 -10z m42 4 c-3 -3 -12 -4 -19 -1 -8 3 -5 6 6 6 11 1 17 -2 13 -5z m615 -9
c0 -8 1 -21 2 -27 2 -20 18 -28 44 -21 21 5 23 3 20 -23 -2 -23 -7 -28 -25
-26 -12 2 -24 -2 -28 -8 -3 -5 -13 -10 -22 -10 -12 0 -13 3 -4 13 6 8 8 17 4
20 -11 12 -22 7 -28 -13 -6 -20 -6 -20 -27 0 -12 11 -20 21 -17 22 2 2 13 8
24 14 11 7 19 20 18 30 -1 11 0 25 2 32 6 17 35 15 37 -3z m926 8 c-27 -4 -30
-7 -32 -35 -1 -7 -7 -19 -13 -26 -10 -10 -9 -18 3 -38 15 -22 37 -34 32 -16
-2 4 3 22 11 40 10 24 20 32 38 32 21 0 23 -2 13 -15 -7 -8 -16 -12 -21 -9 -5
3 -9 0 -9 -6 0 -14 38 -3 62 17 15 13 16 13 11 -7 -3 -12 -25 -34 -48 -48 -33
-20 -41 -30 -37 -47 3 -19 -2 -24 -28 -30 -18 -4 -30 -12 -27 -18 17 -47 18
-57 2 -57 -12 0 -15 6 -10 19 5 15 -3 22 -37 36 -24 9 -54 24 -67 34 l-23 18
32 -5 c62 -9 96 34 54 69 -11 9 -15 7 -21 -9 -8 -21 -8 -21 -33 -2 l-25 20 31
0 c28 0 54 15 54 31 0 14 -34 19 -42 7 -6 -10 -8 -9 -8 3 0 22 65 47 120 47
27 -1 34 -3 18 -5z m-2551 -19 c-3 -3 -12 -4 -19 -1 -8 3 -5 6 6 6 11 1 17 -2
13 -5z m862 -8 c9 -11 8 -18 -4 -30 -18 -18 -21 -18 -52 -10 -13 4 -23 12 -23
18 0 33 57 49 79 22z m1517 -5 c-9 -13 -66 -32 -66 -21 0 5 15 14 33 19 17 5
33 10 35 10 2 1 1 -3 -2 -8z m-1254 -16 c0 -5 -5 -11 -11 -13 -6 -2 -11 4 -11
13 0 9 5 15 11 13 6 -2 11 -8 11 -13z m121 -36 c-6 -23 -23 -15 -23 11 0 12 5
17 14 14 8 -3 12 -13 9 -25z m-570 -17 c-13 -2 -27 -10 -30 -18 -3 -8 -14 -14
-25 -14 -11 0 -28 -5 -39 -10 -10 -6 -19 -8 -19 -4 0 10 31 33 68 49 17 8 32
19 32 26 0 7 8 4 18 -7 18 -19 18 -19 -5 -22z m517 18 c0 -15 -12 -40 -19 -40
-4 0 -7 13 -6 29 0 19 4 27 12 24 7 -3 13 -9 13 -13z m535 0 c-3 -5 -11 -10
-16 -10 -6 0 -7 5 -4 10 3 6 11 10 16 10 6 0 7 -4 4 -10z m1052 -12 c18 -15
16 -41 -2 -35 -11 5 -13 0 -8 -23 6 -35 -3 -37 -45 -13 -28 16 -31 16 -56 0
-15 -10 -24 -22 -21 -27 4 -6 3 -15 0 -20 -4 -6 -19 3 -36 22 l-28 33 29 14
c17 8 30 18 30 23 0 4 6 8 14 8 8 0 16 3 19 8 2 4 2 1 0 -7 -2 -9 2 -11 14 -6
10 4 26 10 36 12 9 3 17 10 17 15 0 5 -10 6 -21 3 -15 -5 -19 -4 -14 5 8 13
51 6 72 -12z m-1677 -18 c0 -13 -6 -20 -17 -19 -11 0 -13 3 -5 6 6 2 12 11 12
19 0 8 2 14 5 14 3 0 5 -9 5 -20z m694 8 c-3 -4 -9 -8 -15 -8 -5 0 -9 4 -9 8
0 5 7 9 15 9 8 0 12 -4 9 -9z m114 -19 c11 0 9 -4 -8 -10 -14 -6 -34 -8 -44
-5 -11 3 -26 0 -33 -6 -8 -7 -13 -7 -13 0 0 5 7 13 16 16 8 3 13 10 9 15 -3 5
5 11 17 13 13 2 27 -2 31 -9 4 -7 16 -13 25 -14z m442 17 c0 -16 -27 -29 -41
-20 -19 11 -9 34 16 34 15 0 25 -6 25 -14z m-860 -24 c0 -5 -13 -9 -30 -9 -16
0 -30 4 -30 9 0 4 14 8 30 8 17 0 30 -4 30 -8z m695 -2 c3 -6 -1 -7 -9 -4 -18
7 -21 14 -7 14 6 0 13 -4 16 -10z m105 0 c0 -5 -2 -10 -4 -10 -3 0 -8 5 -11
10 -3 6 -1 10 4 10 6 0 11 -4 11 -10z m-2246 -6 c9 -3 16 -11 16 -16 0 -6 -7
-8 -15 -4 -8 3 -15 1 -15 -4 0 -6 5 -10 10 -10 17 0 11 -19 -12 -42 -15 -15
-23 -18 -26 -9 -3 9 -7 9 -20 -1 -13 -11 -14 -10 -4 9 18 32 15 43 -12 43 -27
0 -41 14 -31 30 7 11 84 14 109 4z m2776 -4 c0 -5 -5 -10 -11 -10 -5 0 -7 5
-4 10 3 6 8 10 11 10 2 0 4 -4 4 -10z m45 0 c-3 -5 -12 -10 -18 -10 -7 0 -6 4
3 10 19 12 23 12 15 0z m-2990 -30 c0 -8 -10 -16 -22 -18 -15 -2 -23 2 -23 11
0 9 -6 18 -12 21 -7 3 3 4 22 3 23 -1 35 -7 35 -17z m2075 -6 c0 -2 -9 -4 -21
-4 -11 0 -18 4 -14 10 5 8 35 3 35 -6z m192 5 c15 -8 17 -13 8 -19 -18 -11
-47 -1 -47 16 0 17 11 18 39 3z m-1718 -8 c3 -5 -1 -22 -9 -37 -8 -16 -15 -35
-15 -41 0 -23 -19 -14 -26 11 -9 37 34 94 50 67z m1937 -2 c46 -16 67 -35 52
-50 -9 -9 -36 -7 -108 6 -52 9 -102 14 -110 11 -8 -3 -15 -1 -15 4 0 5 11 12
25 16 14 3 25 10 25 15 0 13 91 11 131 -2z m-873 -11 c-7 -19 -34 -32 -54 -24
-19 7 -19 8 0 22 24 17 59 19 54 2z m540 -8 c26 -16 32 -25 26 -42 -5 -18 -3
-20 21 -14 21 5 32 1 55 -24 17 -18 38 -30 53 -30 14 0 28 -4 32 -9 3 -5 18
-12 33 -16 25 -5 28 -10 27 -41 -1 -19 -4 -36 -6 -39 -6 -5 -62 15 -116 42
-29 14 -44 17 -48 9 -3 -6 -3 -1 -1 12 4 19 0 22 -32 24 -21 1 -45 2 -54 3
-20 1 -58 46 -58 69 0 9 -5 16 -12 16 -6 0 -4 7 5 18 10 10 17 24 17 30 0 18
21 15 58 -8z m518 -27 c-10 -10 -19 5 -10 18 6 11 8 11 12 0 2 -7 1 -15 -2
-18z m-2485 1 c12 -14 11 -16 -5 -13 -11 2 -21 10 -24 17 -5 17 13 15 29 -4z
m-61 -24 c0 -5 -5 -10 -11 -10 -5 0 -7 5 -4 10 3 6 8 10 11 10 2 0 4 -4 4 -10z
m2430 -35 c10 -12 10 -15 -3 -15 -8 0 -17 7 -21 15 -3 8 -2 15 3 15 5 0 14 -7
21 -15z m-2150 -21 c0 -14 -4 -23 -10 -19 -5 3 -10 15 -10 26 0 10 5 19 10 19
6 0 10 -12 10 -26z m330 -14 c-6 -12 -14 -20 -17 -17 -2 3 1 14 8 26 17 26 24
19 9 -9z m-555 -1 c11 -17 -1 -21 -15 -4 -8 9 -8 15 -2 15 6 0 14 -5 17 -11z
m2529 -5 c4 -11 1 -14 -11 -12 -9 2 -18 9 -21 16 -6 18 25 15 32 -4z m-100
-30 c9 -3 13 -10 10 -15 -8 -14 -21 -11 -28 6 -6 17 -4 18 18 9z m-866 -16
c-2 -6 -14 -12 -26 -13 -24 -2 -30 10 -9 18 22 10 39 7 35 -5z m-1593 -8 c-3
-5 -11 -10 -16 -10 -6 0 -7 5 -4 10 3 6 11 10 16 10 6 0 7 -4 4 -10z m-65 -24
c0 -30 -28 -42 -49 -21 -14 13 -13 16 4 30 29 21 45 18 45 -9z m181 2 c-5 -13
-13 -23 -20 -22 -6 1 -26 2 -43 4 -19 1 -26 4 -15 7 9 2 15 9 12 14 -8 12 2
11 26 -1 15 -9 21 -7 25 5 3 8 10 15 15 15 4 0 5 -10 0 -22z m134 -13 c0 -22
-22 -30 -44 -16 -21 14 -5 43 21 39 15 -2 23 -10 23 -23z m571 0 c-22 -17 -36
-18 -63 -8 -16 6 -15 8 7 14 14 4 36 7 50 8 24 0 24 0 6 -14z m585 5 c23 -13
25 -38 4 -46 -19 -8 -65 22 -65 41 0 17 32 20 61 5z m-471 -30 c0 -5 -7 -7
-15 -4 -8 4 -15 8 -15 10 0 2 7 4 15 4 8 0 15 -4 15 -10z m1820 0 c0 -5 -4
-10 -10 -10 -5 0 -10 5 -10 10 0 6 5 10 10 10 6 0 10 -4 10 -10z m-1970 -9 c0
-5 -14 -11 -30 -13 -33 -5 -29 7 5 15 11 3 21 5 23 6 1 0 2 -3 2 -8z m1860 -1
c0 -5 -4 -10 -10 -10 -5 0 -10 5 -10 10 0 6 5 10 10 10 6 0 10 -4 10 -10z m74
-21 c-6 -10 -54 -12 -54 -3 0 4 8 13 17 20 19 13 48 0 37 -17z m-1834 -56 c0
-28 -24 -30 -46 -4 -9 10 -26 17 -37 16 -30 -4 -51 19 -32 35 11 9 19 8 37 -4
30 -21 34 -20 42 7 l6 22 15 -25 c8 -14 14 -35 15 -47z m1670 57 c0 -5 -4 -10
-10 -10 -5 0 -10 5 -10 10 0 6 5 10 10 10 6 0 10 -4 10 -10z m-2550 -9 c0 -5
-11 -12 -25 -15 -14 -4 -25 -13 -25 -20 0 -8 -7 -16 -15 -20 -9 -3 -15 0 -15
8 0 8 -3 21 -6 30 -4 11 4 16 38 19 23 2 44 4 46 5 1 1 2 -2 2 -7z m300 5 c0
-3 -4 -8 -10 -11 -5 -3 -10 -1 -10 4 0 6 5 11 10 11 6 0 10 -2 10 -4z m630
-10 c0 -8 -4 -18 -10 -21 -5 -3 -10 3 -10 14 0 12 5 21 10 21 6 0 10 -6 10
-14z m660 9 c0 -12 -38 -46 -42 -38 -19 34 -17 43 12 43 17 0 30 -2 30 -5z
m37 -1 c-3 -3 -12 -4 -19 -1 -8 3 -5 6 6 6 11 1 17 -2 13 -5z m97 -9 c13 -6
21 -4 24 3 2 7 13 12 25 12 31 -1 61 -26 54 -45 -8 -20 -80 -20 -97 0 -7 8
-23 15 -35 15 -12 0 -28 7 -35 15 -11 13 -8 15 16 11 16 -2 38 -7 48 -11z
m-269 -20 c14 -14 25 -32 25 -40 0 -9 6 -12 15 -9 8 4 15 1 15 -4 0 -18 -32
-43 -47 -38 -8 3 -32 6 -54 6 -28 0 -39 4 -39 15 0 9 7 18 15 21 9 4 15 19 15
40 0 42 19 45 55 9z m-1332 -4 c-3 -11 -13 -27 -24 -37 -17 -16 -19 -16 -25 0
-4 10 1 25 11 36 23 26 45 26 38 1z m141 13 c9 -3 16 -12 16 -20 0 -17 10 -17
45 -4 18 7 33 7 45 0 22 -12 16 -42 -6 -33 -8 3 -14 0 -14 -6 0 -16 -16 -14
-34 4 -18 18 -38 20 -34 2 6 -26 -48 -23 -55 3 -6 23 -27 27 -27 5 0 -8 -4
-15 -8 -15 -20 0 -20 14 0 41 21 29 41 35 72 23z m360 0 c13 -5 14 -9 5 -20
-16 -20 -25 -17 -25 6 0 11 1 20 2 20 1 0 10 -3 18 -6z m2086 -16 c33 -11 33
-11 11 -20 -23 -8 -51 4 -51 23 0 11 0 11 40 -3z m-2154 -44 c-27 -19 -96 -19
-96 1 0 11 9 14 34 10 23 -2 39 1 47 11 9 11 15 12 23 4 8 -8 6 -15 -8 -26z
m94 12 c0 -3 -4 -8 -10 -11 -5 -3 -10 -1 -10 4 0 6 5 11 10 11 6 0 10 -2 10
-4z m-227 -26 c3 -11 2 -20 -3 -20 -12 0 -31 26 -23 33 11 12 21 7 26 -13z
m1967 5 c13 -15 14 -14 -35 -30 -8 -2 -15 0 -15 5 0 6 5 10 10 10 6 0 10 7 10
15 0 19 14 19 30 0z m-806 -11 c8 -20 8 -24 -1 -24 -17 0 -35 19 -29 29 10 16
23 14 30 -5z m-800 -9 c7 -20 -43 -45 -92 -45 -21 0 -43 -5 -49 -11 -6 -6 -17
-9 -23 -7 -24 8 26 50 75 63 66 18 82 18 89 0z m241 4 c10 -15 -25 -49 -51
-49 -26 0 -35 17 -22 43 10 19 63 24 73 6z m505 1 c0 -5 -5 -10 -11 -10 -5 0
-7 5 -4 10 3 6 8 10 11 10 2 0 4 -4 4 -10z m464 -49 c-2 -3 -12 3 -22 13 -16
17 -16 18 5 5 12 -7 20 -15 17 -18z m-34 -1 c31 -24 9 -27 -41 -6 -32 13 -30
17 11 25 3 0 16 -8 30 -19z m-475 0 c7 -12 -2 -12 -30 0 -19 8 -19 9 2 9 12 1
25 -3 28 -9z m1005 0 c0 -5 -4 -10 -10 -10 -5 0 -10 5 -10 10 0 6 5 10 10 10
6 0 10 -4 10 -10z m-1957 -17 c-7 -2 -21 -2 -30 0 -10 3 -4 5 12 5 17 0 24 -2
18 -5z m-183 -22 c0 -14 -51 -52 -61 -45 -11 6 -12 38 -2 47 10 10 63 8 63 -2z
m2150 -2 c0 -4 -7 -9 -15 -13 -9 -3 -15 0 -15 8 0 7 7 13 15 13 8 0 15 -4 15
-8z m-2300 -19 c0 -5 -9 -10 -19 -10 -11 0 -23 5 -26 10 -4 6 5 10 19 10 14 0
26 -4 26 -10z m2260 -5 c7 -9 8 -15 2 -15 -5 0 -12 7 -16 15 -3 8 -4 15 -2 15
2 0 9 -7 16 -15z m-2260 -37 c0 -4 -9 -8 -20 -8 -11 0 -20 4 -20 9 0 6 9 9 20
8 11 -1 20 -5 20 -9z m129 -9 c-18 -11 -39 -11 -39 0 0 5 12 9 26 9 18 0 22
-3 13 -9z m-144 -39 c-3 -5 -10 -10 -16 -10 -5 0 -9 5 -9 10 0 6 7 10 16 10 8
0 12 -4 9 -10z m45 -450 c-10 -19 -40 -28 -40 -12 0 13 23 32 37 32 11 0 11
-5 3 -20z m260 -105 c0 -8 -2 -15 -4 -15 -2 0 -6 7 -10 15 -3 8 -1 15 4 15 6
0 10 -7 10 -15z m390 -131 c0 -27 -5 -37 -20 -41 -22 -6 -29 -52 -7 -49 6 0
13 -3 15 -9 1 -5 -13 -11 -33 -13 l-35 -3 0 75 0 76 40 0 c39 0 40 -1 40 -36z
m94 -44 c0 -41 -1 -120 -2 -175 l-2 -101 -35 4 c-26 3 -35 9 -35 23 0 10 -5
21 -11 24 -6 5 -4 15 7 32 12 19 15 41 12 85 -3 44 -1 61 9 65 18 7 16 43 -2
43 -11 0 -15 11 -15 41 l0 40 38 -3 37 -3 -1 -75z m98 -70 c-2 -80 -5 -147 -7
-149 -3 -2 -16 -4 -30 -4 -25 1 -33 -11 -15 -22 15 -9 12 -22 -5 -29 -13 -5
-15 19 -15 175 l0 180 38 -3 37 -3 -3 -145z m296 -22 c-3 -173 -3 -173 -25
-171 -13 2 -23 -2 -23 -7 0 -6 10 -10 22 -10 14 0 19 -3 12 -10 -5 -5 -19 -7
-31 -4 -20 6 -22 13 -25 123 -2 65 -1 145 0 179 4 57 5 61 30 65 15 2 30 5 35
6 4 0 6 -77 5 -171z m102 75 c0 -78 -2 -91 -15 -87 -8 4 -15 1 -15 -5 0 -6 -7
-8 -15 -5 -8 4 -15 1 -15 -5 0 -6 -4 -11 -10 -11 -11 0 -14 192 -3 204 4 3 22
5 40 4 l33 -2 0 -93z m71 62 c1 6 1 13 0 18 0 4 6 7 14 7 10 0 15 -10 15 -30
0 -23 -4 -30 -20 -30 -17 0 -20 -7 -20 -39 0 -21 -6 -51 -14 -65 l-13 -27 -7
32 c-8 43 -8 154 1 163 4 4 15 -3 25 -16 10 -13 18 -18 19 -13z m127 2 c3 -21
-1 -27 -15 -27 -10 0 -28 -3 -40 -6 -20 -6 -23 -3 -23 24 0 32 10 40 50 38 19
-1 26 -8 28 -29z m95 24 c9 -1 9 -75 0 -85 -5 -4 -6 -34 -5 -67 4 -58 3 -59
-22 -59 -22 0 -26 -4 -26 -30 0 -22 6 -33 23 -40 17 -7 18 -9 5 -9 -17 -1 -22
-11 -19 -38 1 -7 -3 -13 -9 -13 -5 0 -10 -7 -10 -15 0 -8 4 -15 10 -15 5 0 7
-7 3 -16 -3 -10 1 -17 14 -20 21 -6 25 -58 5 -60 -7 -1 -16 -2 -22 -3 -5 0
-10 -12 -10 -26 0 -14 5 -26 10 -26 6 -1 15 -2 20 -3 6 0 9 -5 8 -11 -2 -5 -6
-9 -10 -7 -5 1 -8 -3 -8 -9 0 -6 9 -13 20 -16 15 -4 20 -14 20 -39 0 -29 -3
-34 -25 -34 -14 0 -29 8 -35 19 -6 12 -10 106 -10 235 0 209 1 216 20 216 22
0 25 11 11 38 -25 49 -38 121 -25 135 5 5 27 4 67 -2z m105 -70 c2 -41 0 -81
-4 -90 -4 -9 -8 -45 -10 -81 -1 -36 -3 -67 -3 -69 -1 -2 -8 2 -16 9 -13 11
-15 8 -15 -19 0 -17 -5 -31 -12 -31 -9 0 -9 -3 -1 -11 16 -16 33 -3 28 21 -2
11 0 20 6 20 9 0 10 -34 11 -225 l1 -90 -32 -3 c-31 -3 -31 -3 -31 45 0 26 4
55 10 63 6 9 5 17 -3 22 -7 4 -1 11 16 17 16 6 25 16 21 22 -4 8 -9 8 -17 0
-6 -6 -15 -11 -19 -11 -4 0 -8 70 -8 155 l0 155 25 0 c21 0 25 5 25 28 0 32
-14 57 -32 57 -7 0 -14 15 -16 33 -5 52 3 64 40 60 l33 -3 3 -74z m90 69 c13
0 17 -93 6 -171 -6 -44 -7 -45 -40 -41 l-34 4 0 102 c0 57 3 106 7 110 4 4 17
5 28 2 11 -3 26 -6 33 -6z m1688 -17 c3 -16 -1 -23 -14 -24 -10 0 -12 -3 -4
-6 6 -2 12 -20 12 -38 0 -18 -6 -36 -12 -39 -10 -5 -10 -7 0 -12 22 -11 12
-19 -23 -19 l-35 0 0 83 0 83 37 -3 c29 -2 37 -8 39 -25z m94 -38 c0 -63 -1
-65 -25 -65 -19 0 -25 5 -25 23 0 18 -2 19 -10 7 -7 -11 -10 2 -10 43 l0 57
35 0 35 0 0 -65z m-3890 45 c0 -5 -8 -10 -17 -10 -11 0 -14 -3 -7 -8 7 -5 6
-15 -3 -32 -12 -24 -13 -24 -13 18 0 35 3 42 20 42 11 0 20 -4 20 -10z m826
-62 c-3 -40 -5 -112 -6 -160 0 -52 -4 -88 -10 -88 -5 0 -10 8 -10 17 0 13 -3
14 -12 5 -33 -33 -38 -15 -38 143 l0 155 41 0 41 0 -6 -72z m104 7 c0 -44 -4
-67 -12 -69 -7 -3 -25 -7 -40 -10 l-28 -6 0 75 0 75 40 0 40 0 0 -65z m391 3
c1 -35 1 -66 1 -69 -1 -3 -2 -56 -3 -117 -1 -84 -5 -112 -15 -116 -8 -3 -14
-2 -14 3 0 5 -9 11 -20 14 -19 5 -20 14 -20 127 0 83 3 119 11 115 12 -8 51
24 43 36 -9 16 -42 10 -47 -8 -3 -10 -5 3 -6 30 l-1 47 35 0 35 0 1 -62z m99
-118 c0 -173 -1 -180 -20 -181 -11 -1 -26 -2 -32 -3 -16 -1 -11 36 5 46 8 5 6
8 -5 8 -19 0 -25 53 -20 208 l3 102 35 0 34 0 0 -180z m789 128 l-1 -53 -13
30 c-15 32 -19 17 -9 -34 4 -17 10 -28 15 -25 7 4 14 -48 11 -77 -1 -4 -2 -72
-3 -152 0 -100 -4 -147 -12 -151 -8 -3 -7 -8 3 -16 11 -9 12 -13 3 -17 -8 -3
-13 -24 -13 -55 0 -42 -3 -49 -17 -46 -21 4 -21 6 -27 193 -2 76 0 150 5 164
7 17 6 27 -2 32 -10 6 -10 11 0 22 8 10 9 17 1 22 -6 4 -10 49 -10 111 l0 104
35 0 35 0 -1 -52z m101 -25 c0 -42 -1 -74 -3 -72 -1 2 -9 13 -17 23 -10 13
-10 17 -2 12 8 -5 12 1 12 22 0 29 -22 48 -41 36 -12 -7 -23 22 -15 41 3 9 18
15 36 15 l30 0 0 -77z m68 31 c19 -1 19 -1 2 3 -30 7 -26 43 5 43 24 0 25 -2
25 -71 0 -38 -4 -68 -9 -65 -4 3 -6 17 -3 31 4 22 1 25 -24 24 -24 -1 -25 -2
-6 -6 29 -6 28 -20 -3 -25 -25 -5 -25 -4 -24 56 1 41 3 53 8 36 4 -16 14 -25
29 -26z m132 25 c0 -11 -3 -18 -7 -16 -5 3 -17 1 -28 -4 -17 -7 -17 -8 8 -8
32 -1 36 -18 5 -23 -12 -2 -24 -9 -26 -17 -3 -10 0 -12 12 -8 9 4 16 2 16 -3
0 -6 -4 -10 -9 -10 -5 0 -17 -7 -25 -16 -15 -14 -16 -9 -16 55 l0 71 35 0 c29
0 35 -4 35 -21z m198 -56 c-3 -65 -6 -78 -20 -78 -9 0 -20 -4 -24 -8 -11 -10
-34 -9 -34 2 0 6 12 16 28 23 28 14 28 12 17 101 -4 32 -2 37 15 37 19 0 21
-5 18 -77z m58 69 c18 -11 12 -56 -8 -60 -17 -3 -27 21 -20 51 5 19 11 21 28
9z m44 -14 c0 -16 -3 -19 -11 -11 -6 6 -8 16 -5 22 11 17 16 13 16 -11z m92
-3 c3 -13 3 -27 0 -30 -3 -2 -5 -28 -6 -57 -1 -52 -1 -53 -33 -56 l-33 -3 0
85 0 86 34 0 c28 0 34 -4 38 -25z m98 -3 c0 -25 -3 -29 -27 -26 -47 4 -48 4
-30 15 10 6 25 8 33 5 8 -3 14 -1 14 4 0 6 -11 10 -25 10 -14 0 -25 5 -25 10
0 6 14 10 30 10 26 0 30 -4 30 -28z m100 -17 c0 -26 -5 -45 -11 -45 -6 0 -9 7
-5 15 3 8 1 15 -4 15 -6 0 -11 -8 -11 -17 -1 -17 -2 -17 -6 0 -2 9 -8 17 -13
17 -5 0 -7 -7 -4 -15 4 -8 1 -15 -5 -15 -6 0 -11 19 -11 45 0 45 0 45 35 45
35 0 35 0 35 -45z m100 35 c0 -5 -11 -10 -24 -10 -14 0 -28 -4 -31 -10 -4 -6
6 -8 24 -6 40 4 40 -10 1 -19 -16 -4 -30 -10 -30 -14 0 -4 14 -6 30 -3 27 4
30 1 30 -21 0 -33 -9 -38 -46 -27 l-29 8 33 1 c40 1 43 21 2 21 -29 0 -30 2
-30 45 0 45 0 45 35 45 19 0 35 -4 35 -10z m60 0 c0 -5 -7 -10 -15 -10 -8 0
-15 5 -15 10 0 6 7 10 15 10 8 0 15 -4 15 -10z m40 -150 c0 -121 -3 -160 -12
-160 -7 0 -23 -3 -35 -6 -21 -6 -21 -5 -20 145 1 99 6 151 13 151 7 0 10 -45
9 -135 0 -74 3 -135 7 -135 4 0 11 0 14 0 6 0 5 181 -1 255 -3 33 1 45 16 45
5 0 9 -67 9 -160z m100 19 c0 -91 -4 -138 -10 -134 -5 3 -10 -1 -10 -9 0 -9 5
-16 10 -16 6 0 10 -4 10 -10 0 -5 -16 -10 -35 -10 l-35 0 0 160 0 160 35 0 35
0 0 -141z m100 -19 l0 -161 -35 3 c-33 2 -50 17 -22 19 10 0 10 2 0 6 -16 6
-17 55 -2 70 7 7 10 49 7 117 l-3 106 28 0 27 0 0 -160z m56 -120 c14 0 15 18
12 140 -4 132 -4 140 14 140 18 0 19 -9 16 -157 l-3 -158 -35 0 -35 0 -3 145
c-1 79 1 151 5 160 4 8 9 -49 11 -127 2 -122 5 -143 18 -143z m136 264 c2 -9
2 -59 0 -110 -3 -91 -4 -94 -27 -94 -13 0 -27 5 -30 10 -4 6 5 10 19 10 35 0
33 20 -1 21 -25 0 -26 1 -8 9 17 7 17 9 3 9 -16 1 -18 12 -18 81 l0 80 29 0
c19 0 31 -6 33 -16z m-1082 -3 c0 -13 -25 -20 -49 -14 -33 9 -24 23 14 23 19
0 35 -4 35 -9z m-63 -53 c-3 -8 -6 -5 -6 6 -1 11 2 17 5 13 3 -3 4 -12 1 -19z
m453 -20 c0 -13 3 -47 6 -75 8 -60 -2 -67 -31 -23 -11 16 -26 30 -32 30 -22 0
-14 18 10 23 21 3 21 4 2 13 -11 5 -21 19 -22 32 -2 19 2 22 32 22 30 0 35 -3
35 -22z m-2606 -50 c6 -34 5 -38 -15 -38 -15 0 -19 4 -15 16 3 9 9 27 12 40 8
31 10 29 18 -18z m2704 27 c-9 -9 -68 -12 -68 -4 0 5 17 9 37 9 20 0 34 -2 31
-5z m0 -74 c-3 -44 -5 -46 -36 -49 l-32 -3 2 50 c2 50 2 50 36 49 33 -1 33 -1
30 -47z m102 39 c0 -5 -16 -10 -35 -10 -19 0 -35 5 -35 10 0 6 16 10 35 10 19
0 35 -4 35 -10z m690 -14 c0 -8 -12 -11 -35 -8 -19 2 -35 10 -35 16 0 8 12 11
35 8 19 -2 35 -10 35 -16z m-2103 7 c-23 -6 -12 -23 16 -24 12 0 16 -3 10 -6
-9 -3 -10 -10 -3 -23 6 -11 9 -51 8 -89 l-2 -70 -30 6 c-40 8 -46 13 -14 13
25 0 26 3 30 65 3 64 -10 104 -30 91 -12 -7 -21 13 -14 32 2 6 14 11 26 11 17
-1 17 -2 3 -6z m1013 -3 c0 -5 -8 -10 -17 -10 -15 0 -16 2 -3 10 19 12 20 12
20 0z m-521 -21 c14 -2 26 -9 28 -15 2 -7 -8 -9 -27 -6 -30 4 -31 3 -28 -29 3
-30 6 -34 31 -31 l27 3 0 -163 c0 -142 -2 -159 -14 -142 -9 12 -11 23 -5 30 6
8 3 13 -10 17 -11 3 -20 2 -19 -2 1 -3 -2 -13 -5 -21 -4 -8 -8 -35 -10 -60 -2
-25 -4 65 -5 200 -1 135 2 240 6 234 4 -7 18 -14 31 -15z m921 -26 c0 -34 -1
-35 -18 -20 -23 21 -32 21 -32 2 0 -8 -4 -15 -10 -15 -5 0 -10 13 -10 29 0 26
4 30 33 34 17 2 33 5 35 5 1 1 2 -14 2 -35z m590 27 c0 -5 -12 -11 -27 -11
l-28 -1 30 -8 30 -8 -32 -1 c-41 -1 -44 -21 -3 -21 17 0 30 -4 30 -8 0 -4 -16
-6 -35 -4 -32 4 -35 7 -35 38 0 32 2 34 35 34 19 0 35 -4 35 -10z m-3395 -38
c0 -15 -6 -31 -13 -35 -19 -12 -27 0 -13 17 8 10 9 16 1 21 -16 10 -12 21 8
22 13 1 18 -6 17 -25z m2192 12 c-3 -3 -12 -4 -19 -1 -8 3 -5 6 6 6 11 1 17
-2 13 -5z m23 -18 c0 -11 -19 -15 -25 -6 -3 5 1 10 9 10 9 0 16 -2 16 -4z
m-1640 -16 c0 -5 -4 -10 -10 -10 -5 0 -10 5 -10 10 0 6 5 10 10 10 6 0 10 -4
10 -10z m2720 0 c0 -5 -13 -10 -30 -10 -16 0 -30 5 -30 10 0 6 14 10 30 10 17
0 30 -4 30 -10z m-1587 -17 c-7 -2 -21 -2 -30 0 -10 3 -4 5 12 5 17 0 24 -2
18 -5z m1665 -11 c-35 -4 -36 -18 -3 -26 21 -5 25 -12 25 -46 0 -30 -4 -40
-16 -40 -8 0 -12 -5 -9 -10 4 -6 11 -8 16 -5 8 6 10 -14 12 -105 1 -14 -2 -24
-6 -22 -4 1 -20 2 -37 2 -28 0 -30 3 -30 35 0 21 5 35 13 35 8 0 7 4 -3 10
-13 9 -13 11 0 20 10 6 11 10 3 10 -7 0 -13 11 -13 25 0 14 6 25 13 26 9 0 9
2 -1 6 -10 4 -10 8 -1 19 8 10 8 14 0 14 -6 0 -11 15 -11 33 0 32 1 33 38 28
32 -5 34 -6 10 -9z m-2878 -12 c25 0 36 -20 19 -31 -22 -14 -59 -11 -59 5 0
23 13 51 18 38 2 -7 12 -12 22 -12z m1520 -95 c0 -112 -1 -115 -22 -116 -13
-1 -26 -1 -30 0 -5 0 -8 -4 -8 -10 0 -7 11 -9 30 -5 29 5 30 4 30 -30 0 -30
-2 -33 -17 -26 -10 5 -26 8 -35 7 -16 -3 -18 9 -18 139 0 79 3 146 7 149 3 4
19 7 35 7 l28 0 0 -115z m93 102 c2 -7 5 -64 6 -126 l2 -114 -31 6 c-17 4 -30
2 -30 -3 0 -6 5 -10 10 -10 6 0 10 -9 10 -20 0 -20 -14 -27 -24 -12 -8 13 -18
249 -11 271 7 24 59 30 68 8z m1193 -14 c-3 -25 -8 -28 -42 -30 -37 -3 -38 -2
-19 13 14 11 16 18 8 21 -25 9 -12 23 21 23 32 0 34 -2 32 -27z m-3308 -11 c2
-7 -2 -10 -12 -6 -9 3 -16 11 -16 16 0 13 23 5 28 -10z m2785 1 c-7 -2 -19 -2
-25 0 -7 3 -2 5 12 5 14 0 19 -2 13 -5z m-1956 -25 c-3 -8 -6 -5 -6 6 -1 11 2
17 5 13 3 -3 4 -12 1 -19z m2643 -150 c42 -18 39 -42 -5 -45 l-35 -3 2 113 c2
100 2 103 5 30 4 -80 5 -82 33 -95z m-2893 130 c-5 -16 -1 -19 26 -16 l32 3
-2 -87 c-1 -66 -5 -92 -18 -104 -15 -15 -17 -15 -22 5 -3 12 -11 20 -17 18 -8
-3 -13 8 -14 31 -2 28 2 40 20 54 l23 18 -22 0 c-13 0 -23 5 -23 11 0 6 6 9
14 6 8 -3 20 1 26 9 10 12 8 14 -14 14 -23 0 -26 4 -26 36 0 23 4 33 11 28 6
-3 8 -15 6 -26z m63 22 c0 -5 -4 -10 -10 -10 -5 0 -10 5 -10 10 0 6 5 10 10
10 6 0 10 -4 10 -10z m1740 0 c0 -5 -7 -10 -15 -10 -8 0 -15 5 -15 10 0 6 7
10 15 10 8 0 15 -4 15 -10z m-2375 -10 c3 -6 -1 -13 -10 -16 -19 -8 -30 0 -20
15 8 14 22 14 30 1z m70 0 c3 -5 1 -10 -4 -10 -6 0 -11 5 -11 10 0 6 2 10 4
10 3 0 8 -4 11 -10z m152 4 c-3 -3 -12 -4 -19 -1 -8 3 -5 6 6 6 11 1 17 -2 13
-5z m2683 -14 c0 -5 -4 -10 -10 -10 -5 0 -10 5 -10 10 0 6 5 10 10 10 6 0 10
-4 10 -10z m100 0 c0 -5 -16 -10 -35 -10 -19 0 -35 5 -35 10 0 6 16 10 35 10
19 0 35 -4 35 -10z m100 0 c0 -5 -16 -10 -35 -10 -19 0 -35 5 -35 10 0 6 16
10 35 10 19 0 35 -4 35 -10z m100 0 c0 -5 -16 -10 -35 -10 -19 0 -35 5 -35 10
0 6 16 10 35 10 19 0 35 -4 35 -10z m90 -1 c0 -6 -6 -9 -12 -6 -7 2 -21 0 -30
-5 -11 -5 -18 -5 -18 1 0 5 6 12 13 14 22 9 47 7 47 -4z m-730 -9 c0 -5 -5
-10 -11 -10 -5 0 -7 5 -4 10 3 6 8 10 11 10 2 0 4 -4 4 -10z m-1346 -8 c2 -4
-11 -6 -30 -4 -19 2 -34 6 -34 8 0 8 59 4 64 -4z m94 1 c-10 -2 -28 -2 -40 0
-13 2 -5 4 17 4 22 1 32 -1 23 -4z m1002 -3 c0 -5 -2 -10 -4 -10 -3 0 -8 5
-11 10 -3 6 -1 10 4 10 6 0 11 -4 11 -10z m57 4 c-3 -3 -12 -4 -19 -1 -8 3 -5
6 6 6 11 1 17 -2 13 -5z m-2377 -19 c0 -8 -7 -15 -15 -15 -16 0 -20 12 -8 23
11 12 23 8 23 -8z m330 5 c0 -5 -3 -9 -7 -9 -22 4 -29 -4 -27 -28 1 -23 5 -27
23 -25 12 2 24 -3 27 -11 7 -20 -37 -87 -58 -87 -22 0 -34 20 -17 30 10 7 10
11 -1 25 -12 14 -12 18 1 26 10 6 10 9 2 9 -8 0 -13 15 -13 40 0 39 1 40 35
40 19 0 35 -4 35 -10z m100 0 c0 -5 -16 -10 -35 -10 -19 0 -35 5 -35 10 0 6
16 10 35 10 19 0 35 -4 35 -10z m102 -2 c-8 -8 -20 -8 -44 -1 l-33 11 45 1
c33 1 41 -2 32 -11z m341 -8 c-4 -16 0 -20 18 -21 24 -2 24 -2 2 -6 -26 -5
-30 -21 -8 -29 8 -4 15 -14 15 -25 0 -10 8 -23 18 -28 12 -7 13 -10 3 -11 -8
0 -19 -7 -26 -17 -23 -30 -34 -4 -34 77 0 44 4 80 9 80 4 0 6 -9 3 -20z m1887
10 c0 -5 -4 -10 -10 -10 -5 0 -10 5 -10 10 0 6 5 10 10 10 6 0 10 -4 10 -10z
m148 -5 c-2 -2 -18 -5 -35 -8 -22 -4 -33 -1 -33 7 0 8 12 11 36 8 19 -2 34 -6
32 -7z m202 5 c0 -5 -5 -10 -11 -10 -5 0 -7 5 -4 10 3 6 8 10 11 10 2 0 4 -4
4 -10z m190 -30 c0 -23 -5 -40 -11 -40 -6 0 -9 7 -5 15 4 11 -2 15 -26 15 -36
0 -28 16 12 23 24 4 24 4 -3 6 -34 1 -26 21 9 21 21 0 24 -4 24 -40z m-2633
-17 c-3 -10 -5 -2 -5 17 0 19 2 27 5 18 2 -10 2 -26 0 -35z m2331 40 c-10 -2
-28 -2 -40 0 -13 2 -5 4 17 4 22 1 32 -1 23 -4z m75 0 c-7 -2 -19 -2 -25 0 -7
3 -2 5 12 5 14 0 19 -2 13 -5z m127 -3 c0 -6 -13 -9 -30 -8 -16 1 -30 6 -30
10 0 4 14 8 30 8 17 0 30 -5 30 -10z m-624 -15 c9 -23 -15 -45 -48 -45 -36 0
-49 27 -23 46 25 19 64 18 71 -1z m-2146 -13 c0 -13 -9 -19 -35 -20 -19 -2
-35 2 -35 8 0 5 14 10 30 10 17 0 30 5 30 10 0 6 2 10 5 10 3 0 5 -8 5 -18z
m102 -56 c-2 -31 -8 -56 -13 -56 -5 0 -9 9 -9 20 0 13 -7 20 -19 20 -31 0 -35
19 -7 30 34 13 33 30 -1 30 -33 0 -20 17 17 22 33 4 36 -1 32 -66z m488 58 c0
-2 -15 -4 -32 -4 -23 0 -29 3 -19 9 12 8 51 4 51 -5z m90 8 c0 -13 -12 -22
-22 -16 -10 6 -1 24 13 24 5 0 9 -4 9 -8z m119 -19 c0 -25 -1 -25 -8 -8 -5 11
-7 23 -4 28 8 14 13 7 12 -20z m1681 18 c0 -9 -33 -21 -57 -21 -25 0 -13 19
15 23 15 2 30 5 35 6 4 0 7 -3 7 -8z m100 -1 c0 -5 -16 -10 -35 -10 -19 0 -35
5 -35 10 0 6 16 10 35 10 19 0 35 -4 35 -10z m100 0 c0 -5 -16 -10 -35 -10
-19 0 -35 5 -35 10 0 6 16 10 35 10 19 0 35 -4 35 -10z m-2775 -10 c3 -5 -1
-10 -9 -10 -9 0 -16 5 -16 10 0 6 4 10 9 10 6 0 13 -4 16 -10z m2870 1 c3 -5
1 -12 -4 -16 -13 -8 -61 5 -61 16 0 12 57 12 65 0z m-3195 -22 c0 -5 -9 -9
-20 -9 -19 0 -26 11 -14 23 8 8 34 -3 34 -14z m818 -14 c15 -33 15 -35 -3 -35
-8 0 -15 -6 -15 -13 0 -14 -35 -39 -44 -30 -3 4 -6 28 -6 55 0 46 1 48 28 48
21 0 32 -7 40 -25z m2082 15 c0 -5 -7 -10 -16 -10 -8 0 -12 5 -9 10 3 6 10 10
16 10 5 0 9 -4 9 -10z m360 0 c0 -5 -7 -10 -15 -10 -8 0 -15 5 -15 10 0 6 7
10 15 10 8 0 15 -4 15 -10z m-2152 -21 c-19 -13 -28 -11 -28 5 0 9 7 12 21 9
16 -4 17 -8 7 -14z m1880 14 c-10 -2 -28 -2 -40 0 -13 2 -5 4 17 4 22 1 32 -1
23 -4z m112 -43 l0 -50 -35 0 c-24 0 -35 5 -35 15 0 8 9 15 19 15 10 0 21 7
25 15 3 9 0 15 -9 15 -8 0 -15 6 -15 14 0 8 -6 17 -12 19 -7 3 4 6 25 6 l37 1
0 -50z m-2681 3 c-1 -24 -3 -29 -6 -15 -6 31 -33 29 -33 -3 0 -16 -6 -25 -15
-25 -10 0 -15 11 -15 35 0 32 2 34 30 30 17 -2 30 1 30 6 0 5 2 9 5 9 3 0 4
-17 4 -37z m571 33 c0 -11 -19 -15 -25 -6 -3 5 1 10 9 10 9 0 16 -2 16 -4z
m321 -26 c6 0 9 -28 7 -67 -3 -61 -5 -68 -25 -71 -24 -4 -36 30 -37 108 -1 50
10 65 31 44 8 -8 19 -14 24 -14z m87 23 c-10 -2 -26 -2 -35 0 -10 3 -2 5 17 5
19 0 27 -2 18 -5z m1239 -15 c-3 -8 -6 -5 -6 6 -1 11 2 17 5 13 3 -3 4 -12 1
-19z m541 16 c32 -9 30 -44 -3 -44 -14 0 -28 -7 -31 -15 -11 -27 -24 -16 -22
18 3 50 7 54 56 41z m-3196 -31 c-6 -3 -9 -10 -5 -16 4 -7 -1 -6 -10 2 -14 11
-15 17 -6 28 9 10 15 11 23 2 8 -8 8 -13 -2 -16z m738 -19 c0 -17 -6 -24 -19
-24 -23 0 -40 22 -23 28 7 2 12 13 12 24 0 17 3 18 15 8 8 -7 15 -23 15 -36z
m2180 28 c0 -9 -6 -12 -16 -8 -9 3 -20 6 -25 6 -6 0 -8 4 -5 8 8 13 46 8 46
-6z m100 6 c0 -5 -16 -8 -35 -8 -19 0 -35 3 -35 8 0 4 16 7 35 7 19 0 35 -3
35 -7z m243 -5 c-7 -17 -6 -17 20 0 15 9 27 14 28 10 9 -63 1 -100 -16 -73 -4
6 -15 8 -25 5 -10 -3 -21 -1 -25 5 -8 14 4 70 15 70 5 0 6 -8 3 -17z m-3223
-30 c0 -32 -5 -28 -14 10 -4 19 -3 26 4 22 5 -3 10 -18 10 -32z m88 30 c-22
-5 -24 -23 -3 -23 9 0 15 -10 15 -26 0 -14 -4 -23 -10 -19 -6 4 -8 11 -5 16 8
12 -2 11 -26 -1 -21 -12 -25 -1 -6 19 10 11 10 13 0 7 -9 -5 -13 0 -13 13 0
17 6 21 33 20 17 -1 24 -3 15 -6z m119 1 c-3 -3 -12 -4 -19 -1 -8 3 -5 6 6 6
11 1 17 -2 13 -5z m758 -24 c-3 -5 -10 -10 -16 -10 -5 0 -9 5 -9 10 0 6 7 10
16 10 8 0 12 -4 9 -10z m115 0 c0 -5 -4 -10 -10 -10 -5 0 -10 5 -10 10 0 6 5
10 10 10 6 0 10 -4 10 -10z m306 -52 l-1 -63 -32 0 -33 0 0 56 c0 64 3 69 40
69 27 0 28 -1 26 -62z m1592 37 c0 -21 -5 -25 -29 -25 -18 0 -29 -6 -32 -17
-3 -11 -5 -7 -6 10 -1 34 17 56 45 57 16 0 22 -6 22 -25z m-2531 -7 c-3 -8 -6
-5 -6 6 -1 11 2 17 5 13 3 -3 4 -12 1 -19z m2128 -11 c6 -5 3 -7 -7 -3 -10 3
-18 0 -18 -6 0 -6 -2 -9 -5 -6 -3 3 -3 13 1 22 4 9 9 13 13 9 3 -4 11 -12 16
-16z m305 3 c0 -5 -5 -10 -11 -10 -6 0 -9 -7 -5 -15 3 -9 0 -15 -10 -15 -8 0
-12 5 -9 10 6 9 -8 14 -27 11 -13 -2 -9 17 5 22 22 9 57 7 57 -3z m-1920 -10
c0 -5 -5 -10 -11 -10 -5 0 -7 5 -4 10 3 6 8 10 11 10 2 0 4 -4 4 -10z m116
-12 c-5 -38 -17 -57 -32 -51 -17 6 -19 24 -1 21 7 -2 13 9 15 25 2 15 7 27 12
27 5 0 7 -10 6 -22z m1014 6 c0 -8 -4 -12 -10 -9 -5 3 -10 10 -10 16 0 5 5 9
10 9 6 0 10 -7 10 -16z m684 1 c3 -9 -3 -19 -16 -26 -18 -10 -20 -9 -15 6 4 9
7 21 7 26 0 15 17 10 24 -6z m-2590 -1 c9 -3 16 -12 16 -20 0 -12 -4 -12 -20
-2 -28 18 -39 -1 -12 -22 12 -10 22 -24 22 -32 0 -11 -2 -10 -9 1 -5 7 -14 11
-19 7 -13 -8 -32 24 -32 53 0 21 22 27 54 15z m971 -4 c-3 -5 -10 -10 -16 -10
-5 0 -9 5 -9 10 0 6 7 10 16 10 8 0 12 -4 9 -10z m1523 -18 c2 -7 -2 -10 -12
-6 -9 3 -16 11 -16 16 0 13 23 5 28 -10z m402 10 c0 -5 -6 -17 -14 -27 -13
-18 -13 -17 -13 8 0 16 5 27 13 27 8 0 14 -4 14 -8z m-2780 -29 c0 -25 0 -26
-20 -8 -17 15 -20 16 -20 3 0 -9 -7 -18 -15 -22 -11 -4 -15 1 -15 19 0 19 6
24 33 28 17 2 33 5 35 5 1 1 2 -10 2 -25z m-203 -5 c-3 -8 -6 -5 -6 6 -1 11 2
17 5 13 3 -3 4 -12 1 -19z m803 12 c0 -5 -4 -10 -10 -10 -5 0 -10 5 -10 10 0
6 5 10 10 10 6 0 10 -4 10 -10z m62 -22 c-9 -9 -12 -7 -12 12 0 19 3 21 12 12
9 -9 9 -15 0 -24z m1395 16 c-3 -3 -12 -4 -19 -1 -8 3 -5 6 6 6 11 1 17 -2 13
-5z m-87 -44 c27 -27 26 -30 -17 -30 -36 1 -37 2 -19 15 11 8 14 15 8 15 -7 0
-12 5 -12 10 0 16 18 12 40 -10z m800 -13 c0 -7 -14 -14 -32 -15 l-33 -1 30
13 c17 8 31 15 33 15 1 1 2 -5 2 -12z m-890 -7 c0 -5 -15 -9 -32 -9 l-33 1 30
8 c17 4 31 8 33 9 1 0 2 -3 2 -9z m-133 -6 c-3 -3 -12 -4 -19 -1 -8 3 -5 6 6
6 11 1 17 -2 13 -5z"/>
<path d="M1722 3238 c-15 -15 -15 -28 -1 -28 6 0 23 -8 37 -19 15 -10 37 -21
48 -25 19 -6 21 -3 16 21 -5 25 -6 25 -13 8 -7 -19 -8 -19 -8 1 -1 12 -12 29
-26 38 -29 19 -37 20 -53 4z"/>
<path d="M1470 3130 c0 -5 5 -10 11 -10 5 0 7 5 4 10 -3 6 -8 10 -11 10 -2 0
-4 -4 -4 -10z"/>
<path d="M933 3100 c-13 -10 -23 -20 -23 -23 0 -12 34 -16 46 -6 11 9 15 7 20
-5 6 -16 24 -23 24 -8 -1 4 -11 19 -23 34 -22 26 -22 26 -44 8z"/>
<path d="M1080 3110 c0 -5 7 -10 16 -10 8 0 12 5 9 10 -3 6 -10 10 -16 10 -5
0 -9 -4 -9 -10z"/>
<path d="M1125 3080 c3 -5 8 -10 11 -10 2 0 4 5 4 10 0 6 -5 10 -11 10 -5 0
-7 -4 -4 -10z"/>
<path d="M1360 3005 c0 -8 7 -15 15 -15 8 0 15 4 15 9 0 5 -7 11 -15 15 -9 3
-15 0 -15 -9z"/>
<path d="M1360 2940 c0 -23 4 -30 20 -30 11 0 20 5 20 10 0 6 -4 10 -10 10 -5
0 -9 3 -9 8 3 18 -2 32 -11 32 -5 0 -10 -13 -10 -30z"/>
<path d="M655 2499 c-10 -15 3 -25 16 -12 7 7 7 13 1 17 -6 3 -14 1 -17 -5z"/>
<path d="M855 2360 c3 -5 -1 -10 -9 -10 -9 0 -16 -4 -16 -10 0 -14 19 -12 35
4 14 13 10 26 -7 26 -5 0 -6 -4 -3 -10z"/>
<path d="M1050 2360 c0 -5 5 -10 11 -10 5 0 7 5 4 10 -3 6 -8 10 -11 10 -2 0
-4 -4 -4 -10z"/>
<path d="M1050 2320 c0 -5 5 -10 10 -10 6 0 10 5 10 10 0 6 -4 10 -10 10 -5 0
-10 -4 -10 -10z"/>
<path d="M1136 2288 c3 -9 -2 -32 -12 -50 -9 -18 -11 -28 -4 -21 7 6 19 9 27
6 19 -8 51 28 51 58 0 21 -5 24 -34 24 -27 0 -33 -3 -28 -17z"/>
<path d="M1331 2291 c-8 -5 -10 -14 -6 -21 6 -9 10 -8 17 4 12 21 7 28 -11 17z"/>
<path d="M1215 2230 c4 -6 11 -8 16 -5 14 9 11 15 -7 15 -8 0 -12 -5 -9 -10z"/>
<path d="M665 2150 c-3 -5 0 -10 7 -10 7 0 2 -9 -12 -20 l-25 -21 27 12 c16 7
26 19 25 30 -1 21 -12 25 -22 9z"/>
<path d="M2561 1914 c0 -11 3 -14 6 -6 3 7 2 16 -1 19 -3 4 -6 -2 -5 -13z"/>
<path d="M888 1503 c7 -3 16 -2 19 1 4 3 -2 6 -13 5 -11 0 -14 -3 -6 -6z"/>
<path d="M1560 578 c0 -4 7 -8 15 -8 8 0 15 4 15 8 0 5 -7 9 -15 9 -8 0 -15
-4 -15 -9z"/>
<path d="M1550 375 c0 -8 7 -15 15 -15 8 0 15 4 15 9 0 5 -7 11 -15 15 -9 3
-15 0 -15 -9z"/>
<path d="M1955 240 c3 -5 8 -10 11 -10 2 0 4 5 4 10 0 6 -5 10 -11 10 -5 0 -7
-4 -4 -10z"/>
<path d="M2055 459 c-10 -15 3 -25 16 -12 7 7 7 13 1 17 -6 3 -14 1 -17 -5z"/>
<path d="M2056 415 c-3 -8 -1 -15 4 -15 13 0 22 18 11 24 -5 3 -11 -1 -15 -9z"/>
<path d="M2051 291 c-9 -6 -10 -10 -2 -16 7 -4 9 -16 5 -27 -4 -15 -2 -19 7
-16 8 3 15 19 16 36 1 33 -3 37 -26 23z"/>
<path d="M2052 110 c0 -14 2 -19 5 -12 2 6 2 18 0 25 -3 6 -5 1 -5 -13z"/>
<path d="M3828 573 c7 -3 16 -2 19 1 4 3 -2 6 -13 5 -11 0 -14 -3 -6 -6z"/>
<path d="M866 601 c-3 -5 1 -11 9 -15 15 -6 29 7 18 18 -9 9 -21 8 -27 -3z"/>
<path d="M875 550 c3 -5 8 -10 11 -10 2 0 4 5 4 10 0 6 -5 10 -11 10 -5 0 -7
-4 -4 -10z"/>
<path d="M880 506 c0 -9 5 -16 10 -16 6 0 10 4 10 9 0 6 -4 13 -10 16 -5 3
-10 -1 -10 -9z"/>
<path d="M866 461 c-3 -5 1 -11 9 -15 15 -6 29 7 18 18 -9 9 -21 8 -27 -3z"/>
<path d="M870 415 c0 -8 7 -15 16 -15 14 0 14 3 4 15 -7 8 -14 15 -16 15 -2 0
-4 -7 -4 -15z"/>
<path d="M2265 660 c-3 -5 -1 -10 4 -10 6 0 11 5 11 10 0 6 -2 10 -4 10 -3 0
-8 -4 -11 -10z"/>
<path d="M2351 654 c0 -11 3 -14 6 -6 3 7 2 16 -1 19 -3 4 -6 -2 -5 -13z"/>
<path d="M3435 380 c3 -5 11 -10 16 -10 6 0 7 5 4 10 -3 6 -11 10 -16 10 -6 0
-7 -4 -4 -10z"/>
<path d="M3755 610 c-3 -5 -1 -10 4 -10 6 0 11 5 11 10 0 6 -2 10 -4 10 -3 0
-8 -4 -11 -10z"/>
<path d="M3738 573 c6 -2 18 -2 25 0 6 3 1 5 -13 5 -14 0 -19 -2 -12 -5z"/>
<path d="M3740 550 c0 -5 7 -10 15 -10 8 0 15 5 15 10 0 6 -7 10 -15 10 -8 0
-15 -4 -15 -10z"/>
<path d="M3050 580 c0 -5 7 -10 15 -10 8 0 15 5 15 10 0 6 -7 10 -15 10 -8 0
-15 -4 -15 -10z"/>
<path d="M3638 203 c6 -2 18 -2 25 0 6 3 1 5 -13 5 -14 0 -19 -2 -12 -5z"/>
<path d="M2590 3985 c0 -11 11 -15 36 -15 28 0 34 -3 26 -12 -29 -37 -24 -55
26 -86 26 -16 58 -33 70 -36 21 -7 22 -4 22 41 0 26 4 65 9 86 9 36 8 37 -21
37 -21 0 -31 -6 -35 -20 -3 -11 -11 -20 -19 -20 -7 0 -18 9 -24 20 -14 25 -90
29 -90 5z"/>
<path d="M2824 3984 c3 -9 6 -31 6 -50 0 -23 9 -44 28 -65 27 -30 34 -32 111
-37 79 -4 107 -16 81 -32 -7 -4 -9 -13 -5 -20 4 -7 4 -15 -1 -19 -14 -10 -34
-49 -34 -66 0 -8 -4 -15 -8 -15 -5 0 -9 -7 -9 -15 0 -22 55 -19 112 5 26 11
58 20 71 20 13 0 24 4 24 10 0 5 17 12 38 16 20 4 44 16 54 26 28 33 84 7 60
-28 -14 -21 -114 -64 -150 -64 -20 0 -57 -7 -82 -14 -44 -14 -41 -15 92 -15
l138 -1 6 -25 c7 -30 10 -30 60 -8 48 21 45 20 126 35 63 11 70 11 113 -11
l45 -22 0 -56 0 -55 43 7 c23 4 49 11 57 15 8 4 35 11 60 15 25 4 66 14 93 23
l47 17 0 221 0 221 -400 2 c-379 1 -400 0 -400 -17 0 -21 -42 -47 -107 -67
-58 -18 -90 -19 -132 -4 -26 9 -32 18 -37 50 -6 36 -9 39 -40 39 -23 0 -34 -5
-37 -17 -4 -17 -5 -17 -6 0 0 9 -6 17 -12 17 -6 0 -8 -7 -5 -16z m33 -56 c-3
-8 -6 -5 -6 6 -1 11 2 17 5 13 3 -3 4 -12 1 -19z m576 -55 c-7 -2 -21 -2 -30
0 -10 3 -4 5 12 5 17 0 24 -2 18 -5z m357 -78 c0 -8 -7 -15 -15 -15 -8 0 -15
7 -15 15 0 8 7 15 15 15 8 0 15 -7 15 -15z m-33 -35 c3 -10 2 -11 -4 -4 -4 7
-17 14 -28 17 -16 5 -15 5 4 4 14 -1 26 -9 28 -17z m-167 0 c23 -15 -1 -45
-36 -45 -20 0 -30 6 -32 19 -6 31 36 47 68 26z m-450 -15 c0 -6 -57 -35 -70
-35 -5 0 -10 7 -10 16 0 11 6 14 20 9 11 -3 28 -2 37 4 21 12 23 13 23 6z
m220 -75 c0 -17 -7 -20 -40 -20 -50 0 -52 15 -2 28 20 5 38 10 40 11 1 1 2 -8
2 -19z m77 -66 c-3 -3 -12 -4 -19 -1 -8 3 -5 6 6 6 11 1 17 -2 13 -5z m293
-104 c0 -5 -4 -10 -10 -10 -5 0 -10 5 -10 10 0 6 5 10 10 10 6 0 10 -4 10 -10z"/>
<path d="M3078 3993 c12 -2 32 -2 45 0 12 2 2 4 -23 4 -25 0 -35 -2 -22 -4z"/>
<path d="M548 3793 c7 -3 16 -2 19 1 4 3 -2 6 -13 5 -11 0 -14 -3 -6 -6z"/>
<path d="M500 3780 c0 -5 4 -10 9 -10 6 0 13 5 16 10 3 6 -1 10 -9 10 -9 0
-16 -4 -16 -10z"/>
<path d="M1255 3773 c-18 -14 -18 -15 -2 -9 10 3 25 6 33 6 8 0 14 5 14 10 0
15 -22 12 -45 -7z"/>
<path d="M1550 3780 c0 -5 5 -10 10 -10 6 0 10 5 10 10 0 6 -4 10 -10 10 -5 0
-10 -4 -10 -10z"/>
<path d="M258 3753 c7 -3 16 -2 19 1 4 3 -2 6 -13 5 -11 0 -14 -3 -6 -6z"/>
<path d="M1536 3739 c-15 -15 -16 -19 -5 -19 16 0 39 19 39 32 0 13 -14 8 -34
-13z"/>
<path d="M278 3683 c7 -3 16 -2 19 1 4 3 -2 6 -13 5 -11 0 -14 -3 -6 -6z"/>
<path d="M410 3682 c-8 -3 -19 -11 -25 -18 -6 -8 -21 -11 -38 -7 -21 4 -25 8
-15 14 10 7 9 9 -4 9 -12 0 -21 -13 -28 -40 -8 -30 -16 -40 -28 -38 -9 2 -17
-3 -17 -11 0 -11 13 -15 43 -16 39 -1 42 1 42 26 0 18 6 28 20 32 23 6 26 -3
8 -22 -11 -10 -9 -15 6 -27 19 -13 19 -14 -6 -14 -26 0 -43 -12 -32 -23 3 -3
19 -1 36 4 21 6 36 5 45 -2 9 -8 13 -8 13 -1 0 6 -4 14 -10 17 -20 12 -31 43
-18 51 7 4 10 4 6 -1 -4 -4 6 -18 23 -32 24 -20 32 -23 44 -13 12 10 15 9 15
-9 0 -11 -4 -21 -10 -21 -5 0 -10 -11 -10 -25 0 -18 -5 -25 -19 -25 -22 0 -34
-15 -36 -42 -2 -17 3 -19 38 -22 7 -1 11 8 9 22 -4 30 14 51 37 45 22 -6 26 0
35 48 6 31 4 37 -11 35 -12 0 -17 5 -15 16 2 12 -3 15 -18 11 -11 -3 -20 -12
-20 -19 0 -25 -18 -15 -28 15 -14 39 -5 71 20 71 10 0 17 4 14 9 -6 9 -42 11
-66 3z"/>
<path d="M866 3682 c-2 -4 -1 -14 4 -22 7 -11 9 -9 7 8 -1 24 -3 26 -11 14z"/>
<path d="M752 3668 c-21 -21 -13 -28 28 -24 22 2 43 0 46 -5 3 -5 11 -9 17 -9
19 1 -42 50 -62 50 -9 0 -22 -5 -29 -12z"/>
<path d="M928 3672 c-21 -2 -38 -7 -38 -13 0 -5 4 -9 9 -9 5 0 11 -9 14 -20 6
-23 39 -27 56 -6 6 8 8 21 4 32 -6 15 -16 18 -45 16z"/>
<path d="M1927 3667 c-11 -29 -9 -53 4 -40 6 6 9 21 7 34 -3 21 -4 22 -11 6z"/>
<path d="M253 3663 c-7 -2 -13 -9 -13 -14 0 -6 5 -7 10 -4 6 3 10 -1 10 -9 0
-9 7 -16 15 -16 19 0 19 19 0 26 -8 4 -12 10 -9 15 6 10 5 10 -13 2z"/>
<path d="M125 3640 c-3 -5 -1 -10 5 -10 8 0 10 -9 6 -25 -4 -14 -3 -25 1 -26
61 -7 103 -6 103 2 0 5 -8 13 -17 16 -10 4 -32 17 -49 30 -35 26 -40 27 -49
13z"/>
<path d="M450 3643 c0 -5 5 -15 10 -23 8 -13 10 -12 10 3 0 10 5 15 10 12 6
-3 10 -1 10 4 0 6 -9 11 -20 11 -11 0 -20 -3 -20 -7z"/>
<path d="M1040 3634 c0 -8 5 -12 10 -9 6 3 10 10 10 16 0 5 -4 9 -10 9 -5 0
-10 -7 -10 -16z"/>
<path d="M1690 3640 c0 -5 5 -10 10 -10 6 0 10 5 10 10 0 6 -4 10 -10 10 -5 0
-10 -4 -10 -10z"/>
<path d="M2850 3640 c0 -5 5 -10 10 -10 6 0 10 5 10 10 0 6 -4 10 -10 10 -5 0
-10 -4 -10 -10z"/>
<path d="M235 3620 c3 -5 8 -10 11 -10 2 0 4 5 4 10 0 6 -5 10 -11 10 -5 0 -7
-4 -4 -10z"/>
<path d="M1786 3597 c2 -7 13 -13 24 -13 24 0 26 11 4 20 -24 9 -34 7 -28 -7z"/>
<path d="M3026 3584 c-11 -29 -6 -44 14 -44 11 0 20 -5 20 -12 0 -9 3 -8 13 1
10 11 10 14 0 18 -7 3 -13 9 -13 15 0 5 -6 16 -14 23 -12 12 -15 12 -20 -1z"/>
<path d="M97 3563 c-11 -10 -8 -27 7 -48 13 -18 14 -18 35 2 l22 21 -22 16
c-26 18 -32 19 -42 9z"/>
<path d="M692 3563 c-23 -4 -23 -5 -6 -24 9 -10 21 -16 26 -12 7 3 8 -10 3
-36 l-7 -41 37 0 c29 0 35 4 33 18 -2 14 4 17 32 15 31 -1 33 0 17 11 -9 7
-29 12 -45 9 -26 -3 -26 -3 -4 8 12 7 22 20 22 29 0 13 -7 16 -30 12 -18 -3
-30 0 -30 7 0 11 -7 12 -48 4z m25 -19 c-3 -3 -12 -4 -19 -1 -8 3 -5 6 6 6 11
1 17 -2 13 -5z"/>
<path d="M191 3544 c0 -11 3 -14 6 -6 3 7 2 16 -1 19 -3 4 -6 -2 -5 -13z"/>
<path d="M897 3544 c-3 -3 -3 -12 -1 -19 4 -10 -1 -12 -18 -8 -13 3 -19 2 -15
-3 10 -11 87 -12 87 -2 0 5 9 8 20 8 22 0 27 15 8 26 -6 4 -14 2 -16 -4 -5
-15 -42 -16 -42 -2 0 11 -13 13 -23 4z"/>
<path d="M46 3525 c4 -8 16 -15 28 -14 11 0 15 3 8 6 -6 2 -10 9 -6 14 3 5 -4
9 -15 9 -14 0 -19 -5 -15 -15z"/>
<path d="M350 3525 c-10 -12 -10 -15 3 -15 19 0 31 16 18 24 -5 3 -14 -1 -21
-9z"/>
<path d="M2484 3523 c-17 -17 -17 -18 1 -21 9 -2 21 1 25 7 4 8 18 7 47 -3 24
-8 58 -12 81 -9 37 5 40 7 29 24 -11 17 -13 17 -23 4 -10 -13 -16 -13 -54 0
-56 20 -85 19 -106 -2z"/>
<path d="M248 3423 c6 -2 18 -2 25 0 6 3 1 5 -13 5 -14 0 -19 -2 -12 -5z"/>
<path d="M3270 3419 c-25 -5 -56 -13 -70 -19 -20 -8 -35 -7 -63 5 -27 11 -43
13 -55 6 -15 -9 -15 -10 4 -11 12 0 28 -8 35 -17 12 -14 12 -16 0 -8 -24 14
-71 13 -71 -2 0 -7 -4 -13 -10 -13 -5 0 -10 11 -10 25 0 23 -3 25 -27 19 -16
-4 -32 -10 -37 -15 -5 -4 -15 -5 -23 -2 -13 5 -13 2 -4 -15 7 -12 16 -22 21
-22 6 0 10 -10 10 -21 0 -19 -4 -21 -30 -15 -17 3 -30 1 -30 -4 0 -6 8 -10 18
-11 14 0 14 -2 -3 -9 -17 -8 -15 -9 10 -8 34 2 55 -7 55 -24 0 -6 -12 -8 -30
-4 -17 3 -39 1 -49 -6 -14 -8 -22 -7 -39 8 l-22 19 21 15 c20 16 19 16 -15 12
-22 -3 -36 0 -36 7 0 6 7 11 16 11 8 0 13 4 10 9 -4 5 0 11 6 14 28 9 -13 34
-65 41 -93 12 -102 12 -99 -1 1 -7 -5 -13 -14 -13 -8 0 -12 5 -9 10 3 6 1 10
-5 10 -6 0 -13 -7 -16 -15 -7 -18 -70 -20 -77 -2 -4 9 -6 9 -6 -1 -1 -7 10
-17 23 -22 13 -5 27 -13 30 -19 4 -6 12 -8 19 -5 18 7 44 -43 30 -57 -8 -8
-18 -6 -34 4 -13 9 -41 19 -62 22 -43 8 -54 20 -31 33 22 12 11 42 -15 42 -14
0 -23 -9 -27 -25 -5 -20 -9 -23 -20 -14 -9 7 -28 9 -51 4 -46 -8 -55 -13 -47
-27 4 -6 10 -5 16 3 8 11 9 11 5 -1 -2 -8 -16 -16 -30 -18 -19 -2 -27 -9 -27
-23 0 -11 -7 -22 -15 -25 -23 -9 -19 -37 5 -31 11 3 20 1 20 -4 0 -5 16 -9 35
-9 21 0 35 -5 35 -12 0 -10 3 -9 9 1 7 11 9 11 13 0 7 -20 70 -17 91 4 10 10
22 15 27 12 6 -4 10 -1 10 4 0 6 5 11 12 11 6 0 4 -7 -5 -18 -22 -25 -22 -29
11 -57 21 -19 23 -24 10 -25 -20 0 -58 -46 -57 -69 0 -9 3 -11 5 -4 3 7 12 9
20 6 7 -3 11 -9 8 -14 -3 -5 -1 -9 5 -9 5 0 13 5 16 10 13 21 78 4 107 -28 25
-29 57 -45 43 -23 -3 5 2 16 10 25 12 12 13 20 5 35 -17 33 -11 48 11 22 28
-34 47 -15 32 33 -12 38 0 72 16 47 8 -12 13 -12 35 3 14 9 26 13 26 8 0 -4 9
-8 20 -9 12 -1 33 -15 48 -30 15 -16 42 -35 60 -42 17 -7 32 -19 32 -27 0 -19
20 -28 33 -15 8 8 7 11 -2 11 -11 0 -11 3 -1 15 6 8 8 20 4 26 -5 9 -2 10 10
6 10 -4 27 -7 37 -7 11 0 18 -4 15 -9 -3 -5 -16 -7 -27 -4 -21 6 -21 5 -4 -14
17 -20 18 -20 36 -2 11 11 19 28 19 39 0 16 -7 20 -32 20 -34 0 -93 32 -81 43
3 4 -2 7 -13 7 -19 1 -19 1 0 15 11 8 28 15 38 15 11 0 15 5 12 15 -4 8 -12
15 -20 15 -8 0 -14 4 -14 10 0 5 -11 12 -25 16 -15 4 -25 13 -25 24 0 25 22
41 40 30 17 -11 37 -13 27 -3 -8 8 23 32 42 33 8 0 11 -6 7 -17 -4 -10 -4 -14
0 -10 4 4 12 2 19 -3 11 -10 149 11 162 24 11 11 -6 19 -19 9 -9 -6 -21 -6
-37 3 l-23 12 22 7 c12 4 37 4 55 1 18 -4 36 -2 39 3 8 13 -17 20 -52 15 -17
-3 -33 -1 -36 5 -8 12 76 26 100 17 10 -4 14 -1 12 6 -6 16 -31 18 -88 7z
m-520 -46 c-1 -19 -18 -33 -33 -27 -24 9 -21 22 6 27 12 2 23 5 25 6 1 0 2 -2
2 -6z m415 -21 c-3 -3 -11 0 -18 7 -9 10 -8 11 6 5 10 -3 15 -9 12 -12z m-641
-16 c-10 -8 -21 -12 -23 -10 -3 2 4 11 15 18 10 8 21 12 23 10 3 -2 -4 -11
-15 -18z m686 -6 c0 -5 -2 -10 -4 -10 -3 0 -8 5 -11 10 -3 6 -1 10 4 10 6 0
11 -4 11 -10z m-448 -14 c10 -7 15 -16 11 -19 -11 -11 -93 -8 -93 4 0 5 4 8 9
5 5 -3 11 1 15 9 7 18 35 19 58 1z m-257 -17 c5 -5 0 -9 -14 -9 -12 0 -30 8
-39 17 -16 15 -15 16 13 9 17 -4 34 -12 40 -17z m-71 -18 c8 -12 -20 -22 -39
-15 -19 8 -9 24 15 24 10 0 21 -4 24 -9z m292 -16 c18 -14 17 -15 -13 -13 -19
1 -33 8 -33 15 0 17 22 16 46 -2z m137 -67 c-2 -5 -3 -11 -3 -16 0 -4 -18 -8
-40 -8 -22 -1 -48 -8 -58 -17 -16 -14 -17 -13 -16 16 1 18 2 34 2 37 1 3 28 3
60 0 31 -3 56 -8 55 -12z m-89 -84 c5 -13 1 -15 -18 -10 -15 4 -26 1 -29 -7
-3 -7 -6 -6 -6 5 -1 14 10 21 40 27 4 0 10 -6 13 -15z"/>
<path d="M3881 3409 c-13 -5 -22 -11 -20 -13 9 -7 139 7 139 15 0 12 -88 10
-119 -2z"/>
<path d="M0 3390 c0 -22 7 -25 29 -11 16 10 6 31 -15 31 -8 0 -14 -9 -14 -20z"/>
<path d="M550 3398 c0 -5 7 -11 16 -15 11 -4 14 -13 10 -29 -5 -19 -2 -24 12
-24 15 0 18 6 15 24 -4 17 0 25 14 29 15 4 14 5 -4 6 -13 0 -23 5 -23 10 0 6
-9 9 -20 8 -11 -1 -20 -5 -20 -9z"/>
<path d="M3488 3403 c6 -2 18 -2 25 0 6 3 1 5 -13 5 -14 0 -19 -2 -12 -5z"/>
<path d="M3550 3400 c0 -5 18 -10 41 -10 24 0 38 4 34 10 -3 6 -22 10 -41 10
-19 0 -34 -4 -34 -10z"/>
<path d="M70 3390 c0 -5 7 -10 16 -10 8 0 12 5 9 10 -3 6 -10 10 -16 10 -5 0
-9 -4 -9 -10z"/>
<path d="M80 3365 c-22 -13 -23 -14 -5 -15 18 -1 18 -2 3 -10 -18 -11 -48 -4
-48 11 0 5 -7 9 -15 9 -20 0 -21 -83 0 -100 11 -9 20 -8 45 10 16 12 30 25 30
29 0 4 25 7 55 6 30 0 55 2 55 5 -1 14 -29 40 -44 40 -9 0 -15 6 -13 12 3 18
-34 20 -63 3z m0 -69 c0 -3 -4 -8 -10 -11 -5 -3 -10 -1 -10 4 0 6 5 11 10 11
6 0 10 -2 10 -4z"/>
<path d="M369 3349 c-14 -27 -1 -46 31 -45 16 1 29 6 28 11 -1 6 3 19 9 30 10
18 8 20 -24 21 -23 0 -37 -5 -44 -17z"/>
<path d="M2875 3330 c-3 -6 1 -7 9 -4 18 7 21 14 7 14 -6 0 -13 -4 -16 -10z"/>
<path d="M3305 3330 c-4 -6 1 -18 11 -25 16 -12 21 -12 33 0 17 16 15 20 -16
29 -12 4 -24 2 -28 -4z"/>
<path d="M120 3290 c-9 -6 -10 -10 -3 -10 6 0 13 -10 15 -22 2 -17 10 -23 28
-23 14 0 39 -7 55 -16 l30 -17 -3 49 c-4 48 -17 64 -28 34 -4 -8 -10 -15 -16
-15 -5 0 -16 7 -24 15 -18 17 -33 19 -54 5z"/>
<path d="M2280 3250 c0 -5 4 -10 9 -10 6 0 13 5 16 10 3 6 -1 10 -9 10 -9 0
-16 -4 -16 -10z"/>
<path d="M393 3243 c-15 -5 -18 -33 -4 -33 13 0 33 28 24 33 -4 2 -14 2 -20 0z"/>
<path d="M3343 3240 c-13 -5 -23 -17 -23 -27 0 -14 2 -15 13 -2 6 8 19 20 27
27 16 14 14 14 -17 2z"/>
<path d="M2150 3209 c0 -6 -8 -8 -20 -4 -11 3 -20 2 -20 -4 0 -5 -13 -12 -30
-16 -27 -6 -30 -10 -30 -46 0 -33 -3 -39 -22 -40 -22 -1 -22 -1 2 -9 44 -14
51 -12 44 15 -5 21 -3 25 15 25 12 0 21 6 21 16 0 11 8 14 26 12 18 -2 31 4
40 17 12 18 11 22 -6 33 -13 8 -20 9 -20 1z"/>
<path d="M285 3190 c-3 -5 3 -10 15 -10 12 0 18 5 15 10 -3 6 -10 10 -15 10
-5 0 -12 -4 -15 -10z"/>
<path d="M37 3153 c-22 -4 -27 -8 -22 -23 3 -10 1 -21 -5 -25 -19 -11 -10 -22
23 -30 l32 -7 -30 -11 c-30 -12 -30 -13 -33 -98 l-3 -86 43 -11 c35 -9 46 -8
59 4 10 9 23 12 34 8 15 -6 17 -4 12 10 -16 41 -19 67 -8 80 15 17 -3 59 -41
100 -26 27 -29 54 -5 40 7 -4 9 -4 5 1 -4 4 -3 14 4 22 6 7 9 15 7 17 -9 8
-46 12 -72 9z"/>
<path d="M184 3144 c3 -9 6 -19 6 -22 0 -9 20 21 20 31 0 4 -7 7 -16 7 -11 0
-14 -5 -10 -16z"/>
<path d="M2159 3137 c-3 -27 4 -43 28 -69 l26 -27 13 24 c7 13 14 33 16 44 3
19 5 19 36 4 17 -8 32 -21 32 -27 0 -8 13 -11 35 -8 37 4 45 16 19 26 -9 3
-14 12 -11 19 3 8 -7 12 -32 13 -20 0 -64 3 -98 7 -47 5 -63 3 -64 -6z"/>
<path d="M376 3122 c-3 -6 -1 -14 5 -17 14 -9 20 -2 10 14 -6 8 -11 9 -15 3z"/>
<path d="M2830 3120 c0 -5 6 -7 14 -4 8 3 16 -3 19 -15 3 -14 11 -18 26 -14
28 7 26 15 -6 31 -32 14 -53 16 -53 2z"/>
<path d="M3615 3120 c3 -5 16 -10 28 -9 21 0 21 1 2 9 -28 12 -37 12 -30 0z"/>
<path d="M300 3112 c0 -12 19 -26 26 -19 2 2 -2 10 -11 17 -9 8 -15 8 -15 2z"/>
<path d="M3180 3110 c0 -5 7 -7 15 -4 8 4 15 8 15 10 0 2 -7 4 -15 4 -8 0 -15
-4 -15 -10z"/>
<path d="M3223 3070 c-14 -6 -23 -18 -23 -31 0 -18 3 -19 15 -9 14 12 26 10
88 -15 9 -4 17 -3 17 2 0 6 -15 14 -32 20 -23 6 -32 14 -30 26 3 19 -3 20 -35
7z"/>
<path d="M230 3060 c0 -5 3 -11 8 -11 33 -6 52 -5 52 3 0 5 -6 8 -12 5 -7 -2
-21 0 -30 5 -12 5 -18 5 -18 -2z"/>
<path d="M2932 3051 c-11 -6 -10 -10 3 -15 10 -3 15 -12 11 -21 -4 -11 1 -15
18 -15 35 0 42 38 10 51 -30 11 -26 11 -42 0z"/>
<path d="M3010 3040 c0 -11 2 -20 4 -20 2 0 6 9 9 20 3 11 1 20 -4 20 -5 0 -9
-9 -9 -20z"/>
<path d="M2491 3041 c-16 -10 -6 -31 15 -31 8 0 14 9 14 20 0 22 -7 25 -29 11z"/>
<path d="M164 3025 c-3 -8 -4 -20 -1 -27 4 -8 6 -6 6 5 1 9 6 17 11 17 6 0 10
5 10 10 0 15 -20 12 -26 -5z"/>
<path d="M3145 3020 c3 -5 10 -10 16 -10 5 0 9 5 9 10 0 6 -7 10 -16 10 -8 0
-12 -4 -9 -10z"/>
<path d="M2150 3010 c-13 -8 -13 -10 2 -10 9 0 19 -6 21 -12 3 -7 6 -3 6 10 1
24 -6 27 -29 12z"/>
<path d="M360 2999 c0 -5 5 -7 10 -4 6 3 10 8 10 11 0 2 -4 4 -10 4 -5 0 -10
-5 -10 -11z"/>
<path d="M2386 2999 c-15 -9 -16 -13 -5 -20 22 -13 28 -11 26 11 -1 11 -1 20
-2 20 0 0 -8 -5 -19 -11z"/>
<path d="M2816 2985 c-11 -8 -17 -17 -14 -20 2 -3 13 4 23 15 21 23 18 25 -9
5z"/>
<path d="M3128 2993 c7 -3 16 -2 19 1 4 3 -2 6 -13 5 -11 0 -14 -3 -6 -6z"/>
<path d="M2380 2951 c0 -5 -11 -12 -25 -15 -14 -4 -25 -13 -25 -21 0 -19 1
-19 55 7 50 25 57 38 20 38 -14 0 -25 -4 -25 -9z"/>
<path d="M2827 2954 c-10 -10 -9 -34 1 -34 5 0 17 7 28 16 15 12 16 15 2 10
-9 -3 -18 0 -20 5 -2 6 -7 7 -11 3z"/>
<path d="M3015 2920 c-3 -5 -1 -10 4 -10 6 0 11 5 11 10 0 6 -2 10 -4 10 -3 0
-8 -4 -11 -10z"/>
<path d="M2200 2910 c-13 -9 -13 -10 0 -10 8 0 22 5 30 10 13 9 13 10 0 10 -8
0 -22 -5 -30 -10z"/>
<path d="M180 2869 c0 -5 5 -9 11 -9 5 0 7 -5 3 -11 -4 -7 -1 -10 6 -7 22 7
22 25 0 31 -11 3 -20 1 -20 -4z"/>
<path d="M2111 2863 c7 -12 15 -20 18 -17 3 2 -3 12 -13 22 -17 16 -18 16 -5
-5z"/>
<path d="M3015 2840 c-10 -11 -15 -23 -12 -27 4 -3 7 -3 7 2 0 4 7 2 15 -5 8
-7 15 -9 15 -5 0 5 9 0 20 -10 11 -10 20 -13 20 -7 0 6 7 9 15 6 10 -4 15 0
15 11 0 12 -5 15 -16 11 -13 -5 -15 -2 -11 14 3 13 0 20 -9 20 -8 0 -14 -4
-14 -9 0 -5 -7 -12 -16 -15 -13 -5 -15 -2 -11 14 6 25 5 25 -18 0z"/>
<path d="M2943 2843 c-24 -2 -44 -10 -47 -19 -3 -7 -1 -14 4 -14 6 0 10 5 10
10 0 6 15 10 34 10 19 0 38 5 41 10 3 6 5 9 3 8 -2 -1 -22 -3 -45 -5z"/>
<path d="M3134 2835 c-10 -8 -14 -14 -9 -15 15 0 40 18 34 24 -3 3 -14 -1 -25
-9z"/>
<path d="M2395 2830 c-3 -6 1 -7 9 -4 18 7 21 14 7 14 -6 0 -13 -4 -16 -10z"/>
<path d="M2476 2825 c18 -14 17 -14 -12 -9 -25 5 -35 1 -46 -15 -8 -11 -18
-19 -21 -16 -4 3 -5 2 -2 -2 3 -3 0 -12 -6 -20 -9 -9 -8 -13 0 -13 6 0 11 -4
11 -10 0 -5 -7 -10 -16 -10 -8 0 -13 -4 -9 -9 3 -6 -17 -9 -48 -8 -45 2 -51 4
-38 15 13 10 11 10 -12 0 l-28 -12 28 -14 c34 -18 54 -38 71 -70 10 -21 10
-27 0 -34 -19 -11 -172 -6 -180 7 -5 6 -8 6 -8 -2 0 -7 -12 -13 -26 -13 -14 0
-23 3 -21 8 2 4 -8 19 -24 33 -22 22 -29 24 -33 12 -9 -24 -7 -33 8 -33 8 0
18 -9 21 -20 4 -13 15 -20 30 -20 41 0 55 -11 55 -42 0 -25 3 -29 18 -23 61
25 76 28 80 17 6 -19 27 -14 50 13 14 16 32 25 52 25 l30 0 -27 -31 c-49 -55
-80 -72 -111 -61 -16 5 -46 6 -67 2 -22 -4 -30 -8 -17 -9 21 -1 33 -21 11 -21
-5 0 -7 -5 -4 -11 4 -6 13 -8 21 -5 7 3 16 1 20 -5 3 -6 28 -9 54 -7 27 3 47
1 44 -3 -4 -7 29 -22 51 -24 5 0 13 -21 16 -46 4 -25 13 -55 20 -67 12 -18 14
-19 25 -5 10 15 13 14 30 -5 25 -30 36 -28 34 6 -3 46 -1 50 30 57 35 8 47 22
31 38 -16 16 -14 32 2 18 9 -7 17 -7 24 0 6 6 19 6 38 -1 32 -12 93 3 111 28
8 11 13 12 18 3 4 -6 2 -19 -5 -27 -15 -18 -7 -27 42 -47 l37 -15 -3 35 c-4
34 -10 47 -23 49 -17 2 -42 17 -42 25 0 5 12 9 28 9 l27 1 -37 32 c-21 17 -54
45 -74 62 -20 16 -31 31 -25 33 6 2 11 10 11 18 0 21 8 18 61 -27 32 -27 49
-36 49 -26 0 9 -19 32 -42 52 l-43 36 60 -5 c33 -2 77 -9 98 -14 35 -9 37 -9
37 15 0 23 -3 24 -52 23 -29 -1 -66 -1 -82 -1 l-29 1 27 25 c14 13 26 31 26
40 0 8 5 15 10 15 6 0 10 5 10 10 0 6 -18 10 -40 10 -37 0 -41 -3 -46 -30 -8
-37 -25 -38 -50 -5 -10 14 -24 25 -31 25 -17 0 -17 -17 0 -23 6 -2 9 -8 5 -12
-4 -4 -24 2 -44 14 -20 12 -42 20 -49 17 -15 -5 -16 26 -1 36 7 5 3 8 -8 8
-42 0 -5 11 55 16 59 5 89 21 89 46 0 14 -37 9 -50 -7 -16 -19 -60 -19 -130 0
-68 18 -68 18 -44 0z m59 -25 c8 -13 -5 -13 -25 0 -13 8 -13 10 2 10 9 0 20
-4 23 -10z m-85 -90 c0 -5 -5 -10 -11 -10 -5 0 -7 5 -4 10 3 6 8 10 11 10 2 0
4 -4 4 -10z m74 -11 c29 -7 28 -7 -10 -6 -26 0 -41 5 -41 13 0 7 5 10 10 7 6
-3 24 -10 41 -14z m-147 -15 c-3 -3 -12 -4 -19 -1 -8 3 -5 6 6 6 11 1 17 -2
13 -5z m136 -21 c-7 -2 -21 -2 -30 0 -10 3 -4 5 12 5 17 0 24 -2 18 -5z m-129
-11 c3 -5 -1 -9 -9 -9 -8 0 -15 4 -15 9 0 4 4 8 9 8 6 0 12 -4 15 -8z m180 -1
c4 -5 -3 -7 -14 -4 -23 6 -26 13 -6 13 8 0 17 -4 20 -9z m56 -5 c0 -3 -4 -8
-10 -11 -5 -3 -10 -1 -10 4 0 6 5 11 10 11 6 0 10 -2 10 -4z m115 -164 c-3 -3
-11 0 -18 7 -9 10 -8 11 6 5 10 -3 15 -9 12 -12z m-299 -173 c-8 -19 -15 -29
-15 -22 -1 18 19 67 25 61 3 -3 -2 -21 -10 -39z"/>
<path d="M2308 2773 c7 -3 16 -2 19 1 4 3 -2 6 -13 5 -11 0 -14 -3 -6 -6z"/>
<path d="M2880 2760 c0 -6 5 -10 11 -10 17 0 70 -58 59 -65 -17 -10 -11 -25 9
-25 56 0 70 -40 21 -60 -16 -7 -30 -18 -30 -26 0 -16 31 -34 57 -33 16 0 16 1
-2 9 -19 8 -19 8 5 18 14 5 36 6 50 3 46 -12 70 -2 70 28 0 28 -1 28 -49 23
-30 -2 -51 0 -55 7 -8 13 18 54 27 44 4 -3 7 1 7 10 0 30 -73 52 -83 25 -4 -9
-15 -2 -34 18 -30 32 -63 50 -63 34z"/>
<path d="M2840 2719 c0 -13 24 -23 28 -11 2 6 10 8 18 5 8 -3 14 0 14 5 0 6
-13 10 -30 10 -16 -1 -30 -5 -30 -9z"/>
<path d="M1950 2700 c-9 -6 -10 -10 -3 -10 6 0 15 5 18 10 8 12 4 12 -15 0z"/>
<path d="M3550 2680 c-9 -6 -10 -10 -3 -10 6 0 15 5 18 10 8 12 4 12 -15 0z"/>
<path d="M3558 2653 c7 -3 16 -2 19 1 4 3 -2 6 -13 5 -11 0 -14 -3 -6 -6z"/>
<path d="M1980 2641 c-24 -7 -24 -7 -3 -13 14 -4 24 -1 27 8 3 8 4 14 3 13 -1
-1 -13 -4 -27 -8z"/>
<path d="M3224 2635 c-10 -8 -14 -15 -8 -15 5 0 19 7 30 15 10 8 14 15 8 15
-5 0 -19 -7 -30 -15z"/>
<path d="M1745 2611 c3 -5 -4 -12 -15 -14 -18 -4 -18 -5 2 -3 22 1 39 26 18
26 -6 0 -9 -4 -5 -9z"/>
<path d="M1552 2599 c-20 -6 -31 -15 -28 -22 3 -7 9 -20 12 -29 9 -24 28 -23
21 1 -3 13 3 23 19 32 13 7 24 16 24 21 0 10 -4 9 -48 -3z"/>
<path d="M3333 2599 c-15 -15 -17 -39 -4 -39 6 0 13 5 17 11 6 11 35 8 82 -6
16 -5 22 -3 22 8 0 8 -13 17 -32 20 -18 4 -42 9 -53 12 -11 3 -26 0 -32 -6z"/>
<path d="M3507 2580 c-3 -13 0 -20 9 -20 8 0 14 9 14 20 0 11 -4 20 -9 20 -5
0 -11 -9 -14 -20z"/>
<path d="M3690 2585 c-7 -9 -10 -18 -7 -21 9 -9 48 16 42 27 -9 13 -21 11 -35
-6z"/>
<path d="M1578 2568 c-3 -7 -2 -23 0 -36 4 -18 7 -20 13 -10 12 18 11 58 0 58
-5 0 -11 -5 -13 -12z"/>
<path d="M2818 2573 c7 -3 16 -2 19 1 4 3 -2 6 -13 5 -11 0 -14 -3 -6 -6z"/>
<path d="M3075 2550 l-20 -9 20 0 c11 0 27 4 35 9 13 9 13 10 0 9 -8 0 -24 -4
-35 -9z"/>
<path d="M2965 2500 c-18 -7 -16 -10 18 -24 27 -12 42 -14 51 -7 7 6 16 8 19
4 4 -3 7 -3 7 0 0 8 -55 37 -67 36 -4 0 -17 -4 -28 -9z"/>
<path d="M3745 2490 c11 -5 29 -8 40 -8 16 0 15 2 -5 8 -34 11 -60 11 -35 0z"/>
<path d="M2865 2480 c-3 -6 1 -7 9 -4 18 7 21 14 7 14 -6 0 -13 -4 -16 -10z"/>
<path d="M1660 2469 c0 -5 5 -7 10 -4 6 3 10 8 10 11 0 2 -4 4 -10 4 -5 0 -10
-5 -10 -11z"/>
<path d="M3845 2470 c4 -6 11 -8 16 -5 14 9 11 15 -7 15 -8 0 -12 -5 -9 -10z"/>
<path d="M3031 2424 c-30 -14 -64 -24 -75 -22 -12 2 -29 -5 -38 -16 -21 -23
-23 -33 -5 -39 7 -2 0 -10 -16 -18 -24 -11 -30 -11 -38 2 -8 12 -11 11 -20 -4
-8 -14 -18 -17 -37 -13 -15 3 -22 3 -15 0 7 -3 10 -11 7 -19 -3 -8 -1 -22 5
-32 7 -12 11 -13 11 -4 0 9 8 11 24 7 32 -8 109 27 130 59 9 13 16 34 16 45 0
18 5 21 33 19 39 -3 79 9 72 22 -4 5 1 9 9 9 10 0 13 6 10 15 -8 19 -7 19 -73
-11z"/>
<path d="M3425 2424 c-33 -14 -91 -34 -130 -44 l-70 -19 50 0 c31 -1 65 6 88
18 20 10 48 22 62 25 32 8 95 46 75 46 -8 -1 -42 -12 -75 -26z"/>
<path d="M1990 2432 c0 -7 -12 -13 -27 -13 -26 -2 -26 -2 -4 -6 24 -5 50 11
38 24 -4 3 -7 1 -7 -5z"/>
<path d="M2031 2416 c-8 -10 -8 -16 3 -25 11 -9 15 -9 19 1 4 11 7 10 15 0 7
-11 10 -9 15 7 2 11 2 22 -1 25 -10 11 -39 6 -51 -8z"/>
<path d="M2740 2324 c0 -8 5 -12 10 -9 6 3 10 10 10 16 0 5 -4 9 -10 9 -5 0
-10 -7 -10 -16z"/>
<path d="M1874 2286 c-10 -8 -16 -17 -13 -20 10 -10 61 13 54 24 -8 14 -18 13
-41 -4z"/>
<path d="M180 2229 c0 -5 5 -7 10 -4 6 3 10 8 10 11 0 2 -4 4 -10 4 -5 0 -10
-5 -10 -11z"/>
<path d="M2257 2053 c-4 -3 -7 -11 -7 -17 0 -6 5 -5 12 2 6 6 9 14 7 17 -3 3
-9 2 -12 -2z"/>
<path d="M3180 1866 c0 -9 30 -14 35 -6 4 6 -3 10 -14 10 -12 0 -21 -2 -21 -4z"/>
<path d="M3555 1850 c3 -5 8 -10 11 -10 2 0 4 5 4 10 0 6 -5 10 -11 10 -5 0
-7 -4 -4 -10z"/>
<path d="M3015 1840 c3 -5 11 -10 16 -10 6 0 7 5 4 10 -3 6 -11 10 -16 10 -6
0 -7 -4 -4 -10z"/>
<path d="M3355 1708 l-27 -24 73 -2 c39 -1 79 -8 87 -14 13 -11 15 -10 9 5 -4
10 -7 23 -7 28 0 5 -9 9 -20 9 -11 0 -20 -4 -20 -9 0 -5 -9 -7 -20 -4 -10 3
-18 10 -17 16 4 21 -31 18 -58 -5z"/>
<path d="M3253 1643 c14 -4 16 -8 6 -19 -15 -18 -69 -18 -93 1 -22 17 -66 20
-66 5 0 -5 12 -10 28 -11 l27 -1 -25 -7 c-41 -11 -31 -36 15 -37 22 -1 52 -7
68 -13 23 -9 30 -8 47 9 16 16 25 18 45 10 20 -8 32 -6 50 8 33 23 33 44 0 36
-18 -4 -27 -1 -31 10 -4 11 -18 16 -48 15 -22 -1 -33 -3 -23 -6z"/>
<path d="M3010 1539 c0 -5 5 -7 10 -4 6 3 10 8 10 11 0 2 -4 4 -10 4 -5 0 -10
-5 -10 -11z"/>
<path d="M2390 1487 c0 -16 28 -37 50 -37 12 0 2 11 -33 39 -15 12 -17 11 -17
-2z"/>
<path d="M2340 1474 c0 -14 3 -14 15 -4 8 7 15 14 15 16 0 2 -7 4 -15 4 -8 0
-15 -7 -15 -16z"/>
<path d="M0 1392 c0 -14 47 -35 59 -27 7 4 18 2 24 -4 18 -14 59 -2 55 17 -2
12 -19 17 -71 19 -37 2 -67 0 -67 -5z"/>
<path d="M2400 1389 c0 -7 -10 -9 -24 -7 -17 3 -23 1 -19 -8 6 -17 38 -24 71
-14 18 5 21 9 8 9 -12 1 -16 6 -12 16 3 9 0 15 -9 15 -8 0 -15 -5 -15 -11z"/>
<path d="M2490 1370 c0 -5 5 -10 10 -10 6 0 10 5 10 10 0 6 -4 10 -10 10 -5 0
-10 -4 -10 -10z"/>
<path d="M2720 1370 c-19 -4 -21 -7 -9 -12 9 -3 22 -2 30 2 19 13 8 18 -21 10z"/>
<path d="M1767 1363 c-4 -3 -7 -15 -7 -26 0 -16 3 -17 15 -7 8 7 15 19 15 26
0 15 -12 19 -23 7z"/>
<path d="M2851 1331 c-38 -5 -42 -8 -28 -19 12 -10 45 -12 134 -8 147 6 180
10 188 18 16 16 -200 23 -294 9z"/>
<path d="M3198 1313 c7 -3 16 -2 19 1 4 3 -2 6 -13 5 -11 0 -14 -3 -6 -6z"/>
<path d="M40 1235 c10 -12 10 -15 -1 -15 -11 0 -11 -2 1 -10 21 -13 57 -12 66
2 5 8 0 9 -17 5 -22 -5 -22 -5 -6 7 26 20 21 26 -19 26 -31 0 -35 -2 -24 -15z"/>
<path d="M2948 1245 c-5 -5 -75 -13 -120 -14 -15 -1 -33 -7 -40 -14 -21 -20
-91 -38 -99 -25 -4 6 -20 8 -40 4 -19 -4 -64 -12 -101 -18 -58 -9 -67 -14 -71
-34 -4 -23 -2 -23 37 -18 23 3 48 8 56 11 8 3 29 7 45 9 17 1 44 5 60 8 17 3
55 9 85 14 31 4 61 12 69 16 7 5 35 9 62 10 40 1 50 -3 55 -17 3 -10 3 -21 0
-24 -3 -4 -1 -12 5 -20 9 -11 1 -13 -44 -13 -31 0 -57 5 -59 11 -6 17 -208 6
-208 -11 0 -20 34 -41 54 -35 27 8 204 21 234 17 38 -6 26 -32 -15 -33 l-38
-1 35 -11 c46 -14 43 -11 50 -65 5 -44 7 -47 38 -50 30 -3 32 -6 32 -43 l0
-39 125 0 125 0 0 155 c0 131 -2 155 -15 155 -13 0 -18 10 -17 30 0 3 -45 6
-101 8 -56 1 -106 7 -110 11 -5 5 -3 9 4 8 8 0 50 1 94 2 120 4 64 19 -71 20
-61 1 -113 -1 -116 -4z m7 -25 c3 -5 -1 -10 -10 -10 -9 0 -13 5 -10 10 3 6 8
10 10 10 2 0 7 -4 10 -10z m180 -121 c0 -7 -8 -15 -17 -17 -18 -3 -25 18 -11
32 10 10 28 1 28 -15z m-135 1 c0 -5 -5 -10 -11 -10 -5 0 -7 5 -4 10 3 6 8 10
11 10 2 0 4 -4 4 -10z"/>
<path d="M56 1179 c3 -6 0 -15 -7 -20 -9 -6 0 -9 26 -8 34 0 37 2 18 9 -13 5
-23 12 -23 15 0 4 4 4 9 0 5 -3 12 -1 16 5 4 6 -5 10 -20 10 -17 0 -24 -4 -19
-11z"/>
<path d="M76 1118 c3 -4 11 -5 19 -1 21 7 19 12 -4 10 -11 0 -18 -5 -15 -9z"/>
<path d="M3590 1120 c0 -5 5 -10 10 -10 6 0 10 5 10 10 0 6 -4 10 -10 10 -5 0
-10 -4 -10 -10z"/>
<path d="M3343 1097 c-15 -6 -23 -19 -23 -34 0 -25 7 -28 30 -13 13 8 12 10
-2 10 -10 0 -18 5 -18 10 0 6 6 10 14 10 14 0 32 18 25 24 -2 2 -14 -1 -26 -7z"/>
<path d="M3385 1090 c3 -5 8 -10 11 -10 2 0 4 5 4 10 0 6 -5 10 -11 10 -5 0
-7 -4 -4 -10z"/>
<path d="M3550 1081 c0 -5 -3 -16 -6 -25 -10 -26 12 -18 24 9 10 21 9 25 -3
25 -8 0 -15 -4 -15 -9z"/>
<path d="M48 1063 c7 -3 16 -2 19 1 4 3 -2 6 -13 5 -11 0 -14 -3 -6 -6z"/>
<path d="M2470 1060 c8 -5 20 -10 25 -10 6 0 3 5 -5 10 -8 5 -19 10 -25 10 -5
0 -3 -5 5 -10z"/>
<path d="M2545 1061 c-14 -6 -1 -10 50 -13 39 -2 72 -2 74 -1 22 15 -92 28
-124 14z"/>
<path d="M2713 1063 c-30 -12 -7 -18 70 -19 45 -1 74 0 65 3 -10 2 -18 8 -18
12 0 8 -99 12 -117 4z"/>
<path d="M3378 1048 c-2 -18 -9 -23 -30 -22 l-26 1 -1 -78 c0 -67 2 -78 17
-78 9 -1 35 -3 57 -6 22 -3 34 -2 26 1 -10 5 -6 10 15 20 25 11 26 12 7 13
-12 1 -25 6 -29 12 -5 8 1 10 19 5 14 -3 29 -2 32 4 3 5 1 10 -6 10 -9 0 -10
3 -2 11 18 18 56 7 58 -18 1 -13 -3 -23 -9 -23 -6 0 2 -7 18 -15 41 -22 65
-19 76 10 8 22 16 25 56 25 37 0 44 3 36 13 -6 7 -9 23 -5 35 5 20 2 22 -40
22 -25 0 -47 5 -49 10 -2 8 -19 8 -53 0 -33 -7 -79 -7 -135 -2 l-85 9 65 2
c60 1 74 14 25 23 -12 2 -19 10 -17 21 2 9 -2 17 -7 17 -5 0 -11 -10 -13 -22z
m138 -77 c-3 -4 -43 -8 -88 -8 -52 0 -74 3 -58 8 36 10 152 11 146 0z m-83
-28 c-7 -2 -19 -2 -25 0 -7 3 -2 5 12 5 14 0 19 -2 13 -5z"/>
<path d="M3410 1060 c0 -5 5 -10 10 -10 6 0 10 5 10 10 0 6 -4 10 -10 10 -5 0
-10 -4 -10 -10z"/>
<path d="M2260 1015 c0 -27 3 -45 7 -41 7 7 5 77 -3 85 -2 2 -4 -17 -4 -44z"/>
<path d="M2428 1053 c7 -3 16 -2 19 1 4 3 -2 6 -13 5 -11 0 -14 -3 -6 -6z"/>
<path d="M2426 1021 c-14 -5 -16 -10 -8 -15 15 -9 52 2 52 15 0 11 -17 11 -44
0z"/>
<path d="M2555 1020 c-3 -5 1 -10 9 -10 8 0 18 5 21 10 3 6 -1 10 -9 10 -8 0
-18 -4 -21 -10z"/>
<path d="M2615 1020 c3 -5 22 -10 41 -10 19 0 34 5 34 10 0 6 -18 10 -41 10
-24 0 -38 -4 -34 -10z"/>
<path d="M3495 1020 c-24 -6 -19 -7 22 -6 29 0 53 4 53 9 0 8 -34 7 -75 -3z"/>
<path d="M55 1010 c-3 -6 1 -7 9 -4 18 7 21 14 7 14 -6 0 -13 -4 -16 -10z"/>
<path d="M2628 993 c6 -2 18 -2 25 0 6 3 1 5 -13 5 -14 0 -19 -2 -12 -5z"/>
<path d="M2744 989 c-4 -7 18 -10 65 -7 39 1 71 0 71 -4 0 -5 7 -8 16 -8 9 0
14 6 12 13 -6 15 -154 21 -164 6z"/>
<path d="M50 980 c0 -5 4 -10 9 -10 6 0 13 5 16 10 3 6 -1 10 -9 10 -9 0 -16
-4 -16 -10z"/>
<path d="M2384 975 c-10 -8 -14 -15 -9 -15 6 0 11 -12 10 -27 0 -24 5 -29 35
-34 19 -4 27 -7 18 -8 -22 -1 -24 -21 -3 -21 19 0 23 11 28 73 4 47 4 47 -28
47 -17 0 -40 -7 -51 -15z m46 -15 c-8 -5 -19 -10 -25 -10 -5 0 -3 5 5 10 8 5
20 10 25 10 6 0 3 -5 -5 -10z"/>
<path d="M867 964 c-9 -10 2 -24 18 -24 9 0 12 6 9 15 -6 16 -17 19 -27 9z"/>
<path d="M2598 963 c-38 -2 -68 -7 -68 -11 0 -4 36 -6 80 -4 44 2 80 8 80 13
0 5 -6 8 -12 7 -7 -1 -43 -3 -80 -5z"/>
<path d="M50 956 c0 -2 7 -6 15 -10 8 -3 15 -1 15 4 0 6 -7 10 -15 10 -8 0
-15 -2 -15 -4z"/>
<path d="M2261 944 c0 -11 3 -14 6 -6 3 7 2 16 -1 19 -3 4 -6 -2 -5 -13z"/>
<path d="M2485 950 c-3 -5 3 -10 15 -10 12 0 18 5 15 10 -3 6 -10 10 -15 10
-5 0 -12 -4 -15 -10z"/>
<path d="M2720 950 c0 -5 6 -10 14 -10 8 0 17 -4 20 -9 4 -5 -19 -8 -51 -7
-32 1 -71 -1 -88 -5 -22 -6 -13 -8 35 -8 36 0 73 -1 82 -1 25 -2 33 -20 9 -20
-12 0 -21 -4 -21 -9 0 -12 113 -11 132 0 8 6 -5 9 -36 9 -41 0 -47 2 -37 14
10 11 8 19 -6 35 -18 22 -53 29 -53 11z"/>
<path d="M2810 949 c0 -5 5 -7 10 -4 6 3 10 8 10 11 0 2 -4 4 -10 4 -5 0 -10
-5 -10 -11z"/>
<path d="M2868 953 c6 -2 18 -2 25 0 6 3 1 5 -13 5 -14 0 -19 -2 -12 -5z"/>
<path d="M2800 921 c0 -16 48 -25 73 -13 21 10 20 11 -10 11 -17 1 -38 4 -47
7 -9 3 -16 1 -16 -5z"/>
<path d="M2935 920 c-4 -6 9 -10 31 -10 42 0 42 4 2 14 -15 3 -30 2 -33 -4z"/>
<path d="M13 913 c9 -2 23 -2 30 0 6 3 -1 5 -18 5 -17 0 -22 -2 -12 -5z"/>
<path d="M872 909 c2 -7 10 -15 17 -17 8 -3 12 1 9 9 -2 7 -10 15 -17 17 -8 3
-12 -1 -9 -9z"/>
<path d="M2488 913 c6 -2 18 -2 25 0 6 3 1 5 -13 5 -14 0 -19 -2 -12 -5z"/>
<path d="M2515 885 c-38 -12 -39 -13 -10 -14 17 0 37 3 45 9 25 15 7 18 -35 5z"/>
<path d="M10 880 c19 -13 30 -13 30 0 0 6 -10 10 -22 10 -19 0 -20 -2 -8 -10z"/>
<path d="M2910 880 c20 -13 80 -13 80 0 0 6 -21 10 -47 10 -35 0 -44 -3 -33
-10z"/>
<path d="M7 853 c7 -2 19 -2 26 0 6 3 1 5 -13 5 -14 0 -19 -2 -13 -5z"/>
<path d="M2407 853 c-17 -16 -5 -33 22 -33 29 0 57 21 44 33 -8 9 -58 9 -66 0z"/>
<path d="M2665 850 c3 -5 8 -10 11 -10 2 0 4 5 4 10 0 6 -5 10 -11 10 -5 0 -7
-4 -4 -10z"/>
<path d="M2720 850 c0 -5 -7 -7 -15 -4 -8 4 -15 2 -15 -4 0 -14 18 -19 52 -14
35 5 38 32 3 32 -14 0 -25 -4 -25 -10z"/>
<path d="M2846 845 c-3 -9 1 -18 10 -22 19 -7 39 11 30 26 -10 16 -33 13 -40
-4z"/>
<path d="M2550 839 c0 -5 5 -7 10 -4 6 3 10 8 10 11 0 2 -4 4 -10 4 -5 0 -10
-5 -10 -11z"/>
<path d="M2593 843 c9 -2 23 -2 30 0 6 3 -1 5 -18 5 -16 0 -22 -2 -12 -5z"/>
<path d="M18 823 c12 -2 32 -2 45 0 12 2 2 4 -23 4 -25 0 -35 -2 -22 -4z"/>
<path d="M1765 800 c3 -5 8 -10 11 -10 2 0 4 5 4 10 0 6 -5 10 -11 10 -5 0 -7
-4 -4 -10z"/>
<path d="M2380 800 c-14 -4 -20 -9 -15 -9 6 -1 26 -4 46 -7 21 -3 40 -1 44 5
3 6 0 11 -9 11 -8 0 -20 2 -28 4 -7 2 -24 0 -38 -4z"/>
<path d="M2987 798 c-20 -12 58 -19 196 -16 83 2 137 7 137 13 0 11 -314 14
-333 3z"/>
<path d="M2720 790 c0 -5 10 -10 23 -10 18 0 19 2 7 10 -19 13 -30 13 -30 0z"/>
<path d="M3352 775 c0 -16 2 -22 5 -12 2 9 2 23 0 30 -3 6 -5 -1 -5 -18z"/>
<path d="M28 763 c12 -2 30 -2 40 0 9 3 -1 5 -23 4 -22 0 -30 -2 -17 -4z"/>
<path d="M3145 760 l-170 -6 173 -2 c109 -1 172 2 172 8 0 6 -1 9 -2 8 -2 -1
-79 -5 -173 -8z"/>
</g>
</svg>
